# Blender 4.1.0
# www.blender.org
o cube
v 1.000000 1.000000 0.750000
v 1.000000 0.000000 0.750000
v 0.000000 1.000000 0.750000
v 0.000000 0.000000 0.750000
v 0.000000 1.000000 -0.000000
v 0.000000 0.000000 0.000000
v 1.000000 1.000000 -0.000000
v 1.000000 0.000000 0.000000
v 1.000000 0.875000 0.999875
v 0.000000 0.875000 0.999875
v 0.000000 0.875000 0.750125
v 1.000000 0.875000 0.750125
v 0.875000 1.000000 0.999875
v 0.875000 0.000000 0.999875
v 0.875000 1.000000 0.750125
v 0.875000 -0.000000 0.750125
v 1.000000 0.125000 1.000000
v 0.000000 0.125000 1.000000
v 0.000000 0.125000 0.750000
v 1.000000 0.125000 0.750000
v 0.125000 1.000000 1.000000
v 0.125000 0.000000 1.000000
v 0.125000 1.000000 0.750000
v 0.125000 -0.000000 0.750000
v 1.000000 0.875000 0.999875
v 0.000000 0.875000 0.999875
v 0.000000 0.875000 0.750125
v 1.000000 0.875000 0.750125
v 0.875000 1.000000 0.999875
v 0.875000 0.000000 0.999875
v 0.875000 1.000000 0.750125
v 0.875000 -0.000000 0.750125
v 0.125000 1.000000 1.000000
v 0.125000 0.000000 1.000000
v 0.125000 1.000000 0.750000
v 0.125000 -0.000000 0.750000
v 1.000000 0.125000 1.000000
v 0.000000 0.125000 1.000000
v 0.000000 0.125000 0.750000
v 1.000000 0.125000 0.750000
v 0.625000 -0.000000 0.750125
v 0.625000 1.000000 0.750125
v 0.625000 0.000000 0.999875
v 0.625000 1.000000 0.999875
v 0.625000 -0.000000 0.750125
v 0.625000 1.000000 0.750125
v 0.625000 0.000000 0.999875
v 0.625000 1.000000 0.999875
v 0.375000 1.000000 1.000000
v 0.375000 0.000000 1.000000
v 0.375000 1.000000 0.750000
v 0.375000 -0.000000 0.750000
v 0.375000 1.000000 1.000000
v 0.375000 0.000000 1.000000
v 0.375000 1.000000 0.750000
v 0.375000 -0.000000 0.750000
v 1.000000 0.375000 1.000000
v 0.000000 0.375000 1.000000
v 0.000000 0.375000 0.750000
v 1.000000 0.375000 0.750000
v 1.000000 0.375000 1.000000
v 0.000000 0.375000 1.000000
v 0.000000 0.375000 0.750000
v 1.000000 0.375000 0.750000
v 1.000000 0.625000 0.999875
v 0.000000 0.625000 0.999875
v 0.000000 0.625000 0.750125
v 1.000000 0.625000 0.750125
v 1.000000 0.625000 0.999875
v 0.000000 0.625000 0.999875
v 0.000000 0.625000 0.750125
v 1.000000 0.625000 0.750125
vn -0.0000 -0.0000 1.0000
vn -0.0000 -0.0000 -1.0000
vn 1.0000 -0.0000 -0.0000
vn -1.0000 -0.0000 -0.0000
vn -0.0000 1.0000 -0.0000
vn -0.0000 -1.0000 -0.0000
vt 0.000000 0.250000
vt 0.000000 0.000000
vt 0.250000 0.000000
vt 0.250000 0.250000
vt 0.500000 0.000000
vt 0.500000 0.250000
vt 0.500000 0.187500
vt 0.750000 0.000000
vt 0.750000 0.187500
vt 1.000000 0.000000
vt 1.000000 0.187500
vt 0.000000 0.437500
vt 0.250000 0.437500
vt 0.500000 0.437500
vt 0.000000 0.500000
vt 0.250000 0.500000
vt 0.750000 0.250000
vt 0.500000 0.500000
vt 1.000000 0.250000
s 0
f 2/1/1 1/2/1 3/3/1 4/4/1
f 6/4/2 5/3/2 7/5/2 8/6/2
f 2/7/3 8/5/3 7/8/3 1/9/3
f 3/9/4 5/8/4 6/10/4 4/11/4
f 1/12/5 7/1/5 5/4/5 3/13/5
f 4/13/6 6/4/6 8/6/6 2/14/6
f 9/15/5 12/12/5 11/13/5 10/16/5
f 14/6/3 16/7/3 15/9/3 13/17/3
f 18/16/6 19/13/6 20/14/6 17/18/6
f 21/17/4 23/9/4 24/11/4 22/19/4
f 25/15/6 26/16/6 27/13/6 28/12/6
f 30/6/4 29/17/4 31/9/4 32/7/4
f 33/17/3 34/19/3 36/11/3 35/9/3
f 38/16/5 37/18/5 40/14/5 39/13/5
f 43/6/4 44/17/4 42/9/4 41/7/4
f 47/6/3 45/7/3 46/9/3 48/17/3
f 49/17/4 51/9/4 52/11/4 50/19/4
f 53/17/3 54/19/3 56/11/3 55/9/3
f 58/16/6 59/13/6 60/14/6 57/18/6
f 62/16/5 61/18/5 64/14/5 63/13/5
f 65/15/5 68/12/5 67/13/5 66/16/5
f 69/15/6 70/16/6 71/13/6 72/12/6
