v 0.375000 0.625000 -0.000000
v 0.375000 0.625000 0.750000
v 0.375000 0.375000 -0.000000
v 0.375000 0.375000 0.750000
v 0.625000 0.375000 -0.000000
v 0.625000 0.375000 0.750000
v 0.625000 0.625000 -0.000000
v 0.625000 0.625000 0.750000
v 0.375000 0.500000 1.000000
v 0.625000 0.500000 1.000000
v 0.375000 0.500000 0.750000
v 0.625000 0.500000 0.750000
v 0.375000 0.500000 1.000000
v 0.625000 0.500000 1.000000
v 0.375000 0.500000 0.750000
v 0.625000 0.500000 0.750000
vn -1.0000 -0.0000 -0.0000
vn 1.0000 -0.0000 -0.0000
vn -0.0000 -1.0000 -0.0000
vn -0.0000 1.0000 -0.0000
vn -0.0000 -0.0000 1.0000
vn -0.0000 -0.0000 -1.0000
vt 0.750000 0.250000
vt 0.750000 0.062500
vt 0.812500 0.062500
vt 0.812500 0.250000
vt 0.500000 0.250000
vt 0.500000 0.062500
vt 0.562500 0.062500
vt 0.562500 0.250000
vt 0.250000 0.500000
vt 0.250000 0.312500
vt 0.312500 0.312500
vt 0.312500 0.500000
vt 0.000000 0.500000
vt 0.000000 0.312500
vt 0.062500 0.312500
vt 0.062500 0.500000
vt 0.062500 0.187500
vt 0.062500 0.125000
vt 0.125000 0.125000
vt 0.125000 0.187500
vt 0.312500 0.125000
vt 0.312500 0.062500
vt 0.375000 0.062500
vt 0.375000 0.125000
vt 0.125000 0.250000
vt 0.062500 0.250000
s 0
f 2/1/1 1/2/1 3/3/1 4/4/1
f 6/5/2 5/6/2 7/7/2 8/8/2
f 4/9/3 3/10/3 5/11/3 6/12/3
f 8/13/4 7/14/4 1/15/4 2/16/4
f 6/17/5 8/18/5 2/19/5 4/20/5
f 3/21/6 1/22/6 7/23/6 5/24/6
f 9/17/4 10/20/4 12/25/4 11/26/4
f 13/17/3 15/26/3 16/25/3 14/20/3
