o layer1
v 1.000000 0.000000 0.125000
v 1.000000 1.000000 0.125000
v 0.000000 1.000000 0.125000
v 0.000000 0.000000 0.125000
v 0.000000 0.000000 0.000000
v 0.000000 1.000000 -0.000000
v 1.000000 1.000000 -0.000000
v 1.000000 0.000000 0.000000
vn -0.0000 -0.0000 1.0000
vn -0.0000 -0.0000 -1.0000
vn 1.0000 -0.0000 -0.0000
vn -1.0000 -0.0000 -0.0000
vn -0.0000 1.0000 -0.0000
vn -0.0000 -1.0000 -0.0000
vt 0.000000 0.250000
vt 0.000000 0.000000
vt 0.250000 0.000000
vt 0.250000 0.250000
vt 0.500000 0.000000
vt 0.500000 0.250000
vt 0.531250 0.250000
vt 0.531250 0.000000
vt 1.000000 0.000000
vt 0.968750 0.000000
vt 0.968750 0.250000
vt 1.000000 0.250000
vt 0.000000 0.281250
vt 0.250000 0.281250
vt 0.250000 0.500000
vt 0.250000 0.468750
vt 0.500000 0.468750
vt 0.500000 0.500000
s 0
f 1/1/1 2/2/1 3/3/1 4/4/1
f 5/4/2 6/3/2 7/5/2 8/6/2
f 1/6/3 8/7/3 7/8/3 2/5/3
f 3/9/4 6/10/4 5/11/4 4/12/4
f 2/13/5 7/1/5 6/4/5 3/14/5
f 4/15/6 5/16/6 8/17/6 1/18/6
