o sign
v 0.46875 0 1
v 0.53125 0 1
v 0.53125 1 1
v 0.46875 1 1
v 0.46875 1 0.4375
v 0.53125 1 0.4375
v 0.53125 0 0.4375
v 0.46875 0 0.4375
v 0.46875 0.4375 0.4375
v 0.53125 0.4375 0.4375
v 0.53125 0.5625 0.4375
v 0.46875 0.5625 0.4375
v 0.46875 0.5625 0
v 0.53125 0.5625 0
v 0.53125 0.4375 0
v 0.46875 0.4375 0
vt 0 0.25
vt 0 0.234375
vt 0.25 0.234375
vt 0.25 0.25
vt 0.25 0.125
vt 0.25 0.109375
vt 0.5 0.109375
vt 0.5 0.125
vt 0.5 0.25
vt 0.515625 0.109375
vt 0.515625 0.25
vt 0.984375 0.25
vt 0.984375 0.109375
vt 1 0.109375
vt 1 0.25
vt 0 0.5
vt 0 0.359375
vt 0.25 0.359375
vt 0.25 0.5
vt 0.5 0.359375
vt 0.5 0.5
vt 0.359375 0.015625
vt 0.359375 0
vt 0.390625 0
vt 0.390625 0.015625
vt 0.609375 0.109375
vt 0.609375 0
vt 0.625 0
vt 0.625 0.109375
vt 0.875 0.109375
vt 0.875 0
vt 0.890625 0
vt 0.890625 0.109375
vt 0.109375 0.359375
vt 0.109375 0.25
vt 0.140625 0.25
vt 0.140625 0.359375
vt 0.359375 0.359375
vt 0.359375 0.25
vt 0.390625 0.25
vt 0.390625 0.359375
vn 0 0 1
vn 0 0 -1
vn 0 -1 0
vn 0 1 0
vn 1 0 0
vn -1 0 0
f 1/9/3 8/7/3 7/10/3 2/11/3
f 3/12/4 6/13/4 5/14/4 4/15/4
f 2/16/5 7/17/5 6/18/5 3/19/5
f 4/19/6 5/18/6 8/20/6 1/21/6
f 1/1/1 2/2/1 3/3/1 4/4/1
f 5/5/2 6/6/2 7/7/2 8/8/2
f 13/22/2 14/23/2 15/24/2 16/25/2
f 9/26/3 16/27/3 15/28/3 10/29/3
f 11/30/4 14/31/4 13/32/4 12/33/4
f 10/34/5 15/35/5 14/36/5 11/37/5
f 12/38/6 13/39/6 16/40/6 9/41/6