v 1.000000 0.000000 0.000000
v 1.000000 0.000000 1.000000
v 0.000000 0.000000 1.000000
v 0.000000 0.000000 0.000000
v 1.000000 1.000000 0.000000
v 1.000000 1.000000 1.000000
v 0.000000 1.000000 1.000000
v 0.000000 1.000000 0.000000
v 1.000000 0.000000 0.000000
v 1.000000 0.000000 0.000000
v 1.000000 0.000000 1.000000
v 1.000000 0.000000 1.000000
v 0.000000 0.000000 0.000000
v 0.000000 0.000000 0.000000
v 1.000000 1.000000 0.000000
v 1.000000 1.000000 0.000000
v 0.000000 0.000000 1.000000
v 0.000000 0.000000 1.000000
v 1.000000 1.000000 1.000000
v 1.000000 1.000000 1.000000
v 0.000000 1.000000 1.000000
v 0.000000 1.000000 1.000000
v 0.000000 1.000000 0.000000
v 0.000000 1.000000 0.000000
vt 0 0
vt 0 1
vt 1 0
vt 1 1
vn 0.000000 -1.000000 0.000000
vn 0.000000 1.000000 0.000000
vn 1.000000 0.000000 0.000000
vn 0.000000 0.000000 1.000000
vn -1.000000 0.000000 0.000000
vn 0.000000 0.000000 -1.000000
f 11/2/1 17/1/1 13/3/1
f 24/2/2 22/1/2 20/3/2
f 15/4/3 19/2/3 12/1/3
f 6/4/4 21/2/4 18/1/4
f 3/3/5 7/4/5 23/2/5
f 1/1/6 4/3/6 8/4/6
f 9/4/1 11/2/1 13/3/1
f 16/4/2 24/2/2 20/3/2
f 10/3/3 15/4/3 12/1/3
f 2/3/4 6/4/4 18/1/4
f 14/1/5 3/3/5 23/2/5
f 5/2/6 1/1/6 8/4/6
