{
  "asset": { "version": "2.0", "generator": "Blockbench 5.0.7 glTF exporter" },
  "scenes": [{ "nodes": [2, 4, 7, 10, 13, 16], "name": "blockbench_export" }],
  "scene": 0,
  "nodes": [
    { "name": "Head", "mesh": 0 },
    { "translation": [0, 4, -1], "name": "Eyestalks", "mesh": 1 },
    { "translation": [0, 22, 0], "name": "Head", "children": [0, 1] },
    { "translation": [0, -25, 0], "name": "Torso", "mesh": 2 },
    { "translation": [0, 22, 0], "name": "Torso", "children": [3] },
    { "name": "RightArm", "mesh": 3 },
    { "translation": [0.5, -1, -0.5], "name": "RightSleeve", "mesh": 4 },
    { "translation": [4, 20.5, 0], "name": "RightArm", "children": [5, 6] },
    { "translation": [1, -1, 0], "name": "LeftArm", "mesh": 5 },
    { "translation": [-0.5, -2, -0.5], "name": "LeftSleeve", "mesh": 6 },
    { "translation": [-5, 21.5, 0], "name": "LeftArm", "children": [8, 9] },
    {
      "translation": [-0.3999999999999999, 1, -0.5],
      "name": "RightLeg",
      "mesh": 7
    },
    { "translation": [1.1, -1, 1], "name": "RightPant", "mesh": 8 },
    { "translation": [1.9, 11, 0], "name": "RightLeg", "children": [11, 12] },
    {
      "translation": [0.1499999999999999, 1, 1.5],
      "name": "LeftLeg",
      "mesh": 9
    },
    {
      "translation": [0.8999999999999999, -1, 1],
      "name": "LeftPant",
      "mesh": 10
    },
    { "translation": [-1.9, 11, 0], "name": "LeftLeg", "children": [14, 15] }
  ],
  "bufferViews": [
    {
      "buffer": 0,
      "byteOffset": 0,
      "byteLength": 288,
      "target": 34962,
      "byteStride": 12
    },
    {
      "buffer": 0,
      "byteOffset": 288,
      "byteLength": 288,
      "target": 34962,
      "byteStride": 12
    },
    {
      "buffer": 0,
      "byteOffset": 576,
      "byteLength": 192,
      "target": 34962,
      "byteStride": 8
    },
    { "buffer": 0, "byteOffset": 768, "byteLength": 72, "target": 34963 },
    {
      "buffer": 0,
      "byteOffset": 840,
      "byteLength": 288,
      "target": 34962,
      "byteStride": 12
    },
    {
      "buffer": 0,
      "byteOffset": 1128,
      "byteLength": 288,
      "target": 34962,
      "byteStride": 12
    },
    {
      "buffer": 0,
      "byteOffset": 1416,
      "byteLength": 192,
      "target": 34962,
      "byteStride": 8
    },
    { "buffer": 0, "byteOffset": 1608, "byteLength": 72, "target": 34963 },
    {
      "buffer": 0,
      "byteOffset": 1680,
      "byteLength": 288,
      "target": 34962,
      "byteStride": 12
    },
    {
      "buffer": 0,
      "byteOffset": 1968,
      "byteLength": 288,
      "target": 34962,
      "byteStride": 12
    },
    {
      "buffer": 0,
      "byteOffset": 2256,
      "byteLength": 192,
      "target": 34962,
      "byteStride": 8
    },
    { "buffer": 0, "byteOffset": 2448, "byteLength": 72, "target": 34963 },
    {
      "buffer": 0,
      "byteOffset": 2520,
      "byteLength": 288,
      "target": 34962,
      "byteStride": 12
    },
    {
      "buffer": 0,
      "byteOffset": 2808,
      "byteLength": 288,
      "target": 34962,
      "byteStride": 12
    },
    {
      "buffer": 0,
      "byteOffset": 3096,
      "byteLength": 192,
      "target": 34962,
      "byteStride": 8
    },
    { "buffer": 0, "byteOffset": 3288, "byteLength": 72, "target": 34963 },
    {
      "buffer": 0,
      "byteOffset": 3360,
      "byteLength": 288,
      "target": 34962,
      "byteStride": 12
    },
    {
      "buffer": 0,
      "byteOffset": 3648,
      "byteLength": 288,
      "target": 34962,
      "byteStride": 12
    },
    {
      "buffer": 0,
      "byteOffset": 3936,
      "byteLength": 192,
      "target": 34962,
      "byteStride": 8
    },
    { "buffer": 0, "byteOffset": 4128, "byteLength": 72, "target": 34963 },
    {
      "buffer": 0,
      "byteOffset": 4200,
      "byteLength": 288,
      "target": 34962,
      "byteStride": 12
    },
    {
      "buffer": 0,
      "byteOffset": 4488,
      "byteLength": 288,
      "target": 34962,
      "byteStride": 12
    },
    {
      "buffer": 0,
      "byteOffset": 4776,
      "byteLength": 192,
      "target": 34962,
      "byteStride": 8
    },
    { "buffer": 0, "byteOffset": 4968, "byteLength": 72, "target": 34963 },
    {
      "buffer": 0,
      "byteOffset": 5040,
      "byteLength": 288,
      "target": 34962,
      "byteStride": 12
    },
    {
      "buffer": 0,
      "byteOffset": 5328,
      "byteLength": 288,
      "target": 34962,
      "byteStride": 12
    },
    {
      "buffer": 0,
      "byteOffset": 5616,
      "byteLength": 192,
      "target": 34962,
      "byteStride": 8
    },
    { "buffer": 0, "byteOffset": 5808, "byteLength": 72, "target": 34963 },
    {
      "buffer": 0,
      "byteOffset": 5880,
      "byteLength": 288,
      "target": 34962,
      "byteStride": 12
    },
    {
      "buffer": 0,
      "byteOffset": 6168,
      "byteLength": 288,
      "target": 34962,
      "byteStride": 12
    },
    {
      "buffer": 0,
      "byteOffset": 6456,
      "byteLength": 192,
      "target": 34962,
      "byteStride": 8
    },
    { "buffer": 0, "byteOffset": 6648, "byteLength": 72, "target": 34963 },
    {
      "buffer": 0,
      "byteOffset": 6720,
      "byteLength": 288,
      "target": 34962,
      "byteStride": 12
    },
    {
      "buffer": 0,
      "byteOffset": 7008,
      "byteLength": 288,
      "target": 34962,
      "byteStride": 12
    },
    {
      "buffer": 0,
      "byteOffset": 7296,
      "byteLength": 192,
      "target": 34962,
      "byteStride": 8
    },
    { "buffer": 0, "byteOffset": 7488, "byteLength": 72, "target": 34963 },
    {
      "buffer": 0,
      "byteOffset": 7560,
      "byteLength": 288,
      "target": 34962,
      "byteStride": 12
    },
    {
      "buffer": 0,
      "byteOffset": 7848,
      "byteLength": 288,
      "target": 34962,
      "byteStride": 12
    },
    {
      "buffer": 0,
      "byteOffset": 8136,
      "byteLength": 192,
      "target": 34962,
      "byteStride": 8
    },
    { "buffer": 0, "byteOffset": 8328, "byteLength": 72, "target": 34963 },
    {
      "buffer": 0,
      "byteOffset": 8400,
      "byteLength": 288,
      "target": 34962,
      "byteStride": 12
    },
    {
      "buffer": 0,
      "byteOffset": 8688,
      "byteLength": 288,
      "target": 34962,
      "byteStride": 12
    },
    {
      "buffer": 0,
      "byteOffset": 8976,
      "byteLength": 192,
      "target": 34962,
      "byteStride": 8
    },
    { "buffer": 0, "byteOffset": 9168, "byteLength": 72, "target": 34963 },
    { "buffer": 0, "byteOffset": 9240, "byteLength": 4 },
    { "buffer": 0, "byteOffset": 9244, "byteLength": 16 },
    { "buffer": 0, "byteOffset": 9260, "byteLength": 4 },
    { "buffer": 0, "byteOffset": 9264, "byteLength": 16 },
    { "buffer": 0, "byteOffset": 9280, "byteLength": 4 },
    { "buffer": 0, "byteOffset": 9284, "byteLength": 16 },
    { "buffer": 0, "byteOffset": 9300, "byteLength": 4 },
    { "buffer": 0, "byteOffset": 9304, "byteLength": 16 },
    { "buffer": 0, "byteOffset": 9320, "byteLength": 4 },
    { "buffer": 0, "byteOffset": 9324, "byteLength": 16 }
  ],
  "buffers": [
    {
      "byteLength": 9340,
      "uri": "data:application/octet-stream;base64,"
    }
  ],
  "accessors": [
    {
      "bufferView": 0,
      "componentType": 5126,
      "count": 24,
      "max": [4, 4, 3],
      "min": [-4, 0, -4],
      "type": "VEC3"
    },
    {
      "bufferView": 1,
      "componentType": 5126,
      "count": 24,
      "max": [1, 1, 1],
      "min": [-1, -1, -1],
      "type": "VEC3"
    },
    {
      "bufferView": 2,
      "componentType": 5126,
      "count": 24,
      "max": [0.468505859375, 0.171630859375],
      "min": [0.000244140625, 0.000244140625],
      "type": "VEC2"
    },
    {
      "bufferView": 3,
      "componentType": 5123,
      "count": 36,
      "max": [23],
      "min": [0],
      "type": "SCALAR"
    },
    {
      "bufferView": 4,
      "componentType": 5126,
      "count": 24,
      "max": [4, 7, 0.0010000000474974513],
      "min": [-4, 0, 0],
      "type": "VEC3"
    },
    {
      "bufferView": 5,
      "componentType": 5126,
      "count": 24,
      "max": [1, 1, 1],
      "min": [-1, -1, -1],
      "type": "VEC3"
    },
    {
      "bufferView": 6,
      "componentType": 5126,
      "count": 24,
      "max": [0.718505859375, 0.109130859375],
      "min": [0.468505859375, -0.000244140625],
      "type": "VEC2"
    },
    {
      "bufferView": 7,
      "componentType": 5123,
      "count": 36,
      "max": [23],
      "min": [0],
      "type": "SCALAR"
    },
    {
      "bufferView": 8,
      "componentType": 5126,
      "count": 24,
      "max": [4, 25, 2],
      "min": [-4, 14, -2],
      "type": "VEC3"
    },
    {
      "bufferView": 9,
      "componentType": 5126,
      "count": 24,
      "max": [1, 1, 1],
      "min": [-1, -1, -1],
      "type": "VEC3"
    },
    {
      "bufferView": 10,
      "componentType": 5126,
      "count": 24,
      "max": [0.374755859375, 0.406005859375],
      "min": [0.000244140625, 0.172119140625],
      "type": "VEC2"
    },
    {
      "bufferView": 11,
      "componentType": 5123,
      "count": 36,
      "max": [23],
      "min": [0],
      "type": "SCALAR"
    },
    {
      "bufferView": 12,
      "componentType": 5126,
      "count": 24,
      "max": [2, 1, 1],
      "min": [0, -11, -1],
      "type": "VEC3"
    },
    {
      "bufferView": 13,
      "componentType": 5126,
      "count": 24,
      "max": [1, 1, 1],
      "min": [-1, -1, -1],
      "type": "VEC3"
    },
    {
      "bufferView": 14,
      "componentType": 5126,
      "count": 24,
      "max": [0.624755859375, 0.421630859375],
      "min": [0.500244140625, 0.203369140625],
      "type": "VEC2"
    },
    {
      "bufferView": 15,
      "componentType": 5123,
      "count": 36,
      "max": [23],
      "min": [0],
      "type": "SCALAR"
    },
    {
      "bufferView": 16,
      "componentType": 5126,
      "count": 24,
      "max": [2, 2.009999990463257, 2],
      "min": [-1, -6.989999771118164, -1],
      "type": "VEC3"
    },
    {
      "bufferView": 17,
      "componentType": 5126,
      "count": 24,
      "max": [1, 1, 1],
      "min": [-1, -1, -1],
      "type": "VEC3"
    },
    {
      "bufferView": 18,
      "componentType": 5126,
      "count": 24,
      "max": [0.812255859375, 0.374755859375],
      "min": [0.625244140625, 0.187744140625],
      "type": "VEC2"
    },
    {
      "bufferView": 19,
      "componentType": 5123,
      "count": 36,
      "max": [23],
      "min": [0],
      "type": "SCALAR"
    },
    {
      "bufferView": 20,
      "componentType": 5126,
      "count": 24,
      "max": [0, 1, 1],
      "min": [-2, -11, -1],
      "type": "VEC3"
    },
    {
      "bufferView": 21,
      "componentType": 5126,
      "count": 24,
      "max": [1, 1, 1],
      "min": [-1, -1, -1],
      "type": "VEC3"
    },
    {
      "bufferView": 22,
      "componentType": 5126,
      "count": 24,
      "max": [0.499755859375, 0.421630859375],
      "min": [0.375244140625, 0.203369140625],
      "type": "VEC2"
    },
    {
      "bufferView": 23,
      "componentType": 5123,
      "count": 36,
      "max": [23],
      "min": [0],
      "type": "SCALAR"
    },
    {
      "bufferView": 24,
      "componentType": 5126,
      "count": 24,
      "max": [2, 2.009999990463257, 2],
      "min": [-1, -6.989999771118164, -1],
      "type": "VEC3"
    },
    {
      "bufferView": 25,
      "componentType": 5126,
      "count": 24,
      "max": [1, 1, 1],
      "min": [-1, -1, -1],
      "type": "VEC3"
    },
    {
      "bufferView": 26,
      "componentType": 5126,
      "count": 24,
      "max": [0.999755859375, 0.374755859375],
      "min": [0.812744140625, 0.187744140625],
      "type": "VEC2"
    },
    {
      "bufferView": 27,
      "componentType": 5123,
      "count": 36,
      "max": [23],
      "min": [0],
      "type": "SCALAR"
    },
    {
      "bufferView": 28,
      "componentType": 5126,
      "count": 24,
      "max": [2, -1, 2],
      "min": [-1, -12, -1],
      "type": "VEC3"
    },
    {
      "bufferView": 29,
      "componentType": 5126,
      "count": 24,
      "max": [1, 1, 1],
      "min": [-1, -1, -1],
      "type": "VEC3"
    },
    {
      "bufferView": 30,
      "componentType": 5126,
      "count": 24,
      "max": [0.187255859375, 0.656005859375],
      "min": [0.000244140625, 0.437744140625],
      "type": "VEC2"
    },
    {
      "bufferView": 31,
      "componentType": 5123,
      "count": 36,
      "max": [23],
      "min": [0],
      "type": "SCALAR"
    },
    {
      "bufferView": 32,
      "componentType": 5126,
      "count": 24,
      "max": [1, 1.0099999904632568, 1],
      "min": [-3, -6.989999771118164, -3],
      "type": "VEC3"
    },
    {
      "bufferView": 33,
      "componentType": 5126,
      "count": 24,
      "max": [1, 1, 1],
      "min": [-1, -1, -1],
      "type": "VEC3"
    },
    {
      "bufferView": 34,
      "componentType": 5126,
      "count": 24,
      "max": [0.624755859375, 0.609130859375],
      "min": [0.375244140625, 0.422119140625],
      "type": "VEC2"
    },
    {
      "bufferView": 35,
      "componentType": 5123,
      "count": 36,
      "max": [23],
      "min": [0],
      "type": "SCALAR"
    },
    {
      "bufferView": 36,
      "componentType": 5126,
      "count": 24,
      "max": [1.25, -1, 0],
      "min": [-1.75, -12, -3],
      "type": "VEC3"
    },
    {
      "bufferView": 37,
      "componentType": 5126,
      "count": 24,
      "max": [1, 1, 1],
      "min": [-1, -1, -1],
      "type": "VEC3"
    },
    {
      "bufferView": 38,
      "componentType": 5126,
      "count": 24,
      "max": [0.374755859375, 0.656005859375],
      "min": [0.187744140625, 0.437744140625],
      "type": "VEC2"
    },
    {
      "bufferView": 39,
      "componentType": 5123,
      "count": 36,
      "max": [23],
      "min": [0],
      "type": "SCALAR"
    },
    {
      "bufferView": 40,
      "componentType": 5126,
      "count": 24,
      "max": [1, 1.0099999904632568, 1],
      "min": [-3, -6.989999771118164, -3],
      "type": "VEC3"
    },
    {
      "bufferView": 41,
      "componentType": 5126,
      "count": 24,
      "max": [1, 1, 1],
      "min": [-1, -1, -1],
      "type": "VEC3"
    },
    {
      "bufferView": 42,
      "componentType": 5126,
      "count": 24,
      "max": [0.874755859375, 0.609130859375],
      "min": [0.625244140625, 0.422119140625],
      "type": "VEC2"
    },
    {
      "bufferView": 43,
      "componentType": 5123,
      "count": 36,
      "max": [23],
      "min": [0],
      "type": "SCALAR"
    },
    {
      "bufferView": 44,
      "componentType": 5126,
      "count": 1,
      "max": [0],
      "min": [0],
      "type": "SCALAR"
    },
    {
      "bufferView": 45,
      "componentType": 5126,
      "count": 1,
      "max": [
        0.16773125529289246, 0.25488701462745667, -0.04494345560669899,
        0.9512512683868408
      ],
      "min": [
        0.16773125529289246, 0.25488701462745667, -0.04494345560669899,
        0.9512512683868408
      ],
      "type": "VEC4"
    },
    {
      "bufferView": 46,
      "componentType": 5126,
      "count": 1,
      "max": [0],
      "min": [0],
      "type": "SCALAR"
    },
    {
      "bufferView": 47,
      "componentType": 5126,
      "count": 1,
      "max": [0.3826834261417389, 0, 0, 0.9238795042037964],
      "min": [0.3826834261417389, 0, 0, 0.9238795042037964],
      "type": "VEC4"
    },
    {
      "bufferView": 48,
      "componentType": 5126,
      "count": 1,
      "max": [0],
      "min": [0],
      "type": "SCALAR"
    },
    {
      "bufferView": 49,
      "componentType": 5126,
      "count": 1,
      "max": [-0.40274667739868164, 0, 0, 0.9153114557266235],
      "min": [-0.40274667739868164, 0, 0, 0.9153114557266235],
      "type": "VEC4"
    },
    {
      "bufferView": 50,
      "componentType": 5126,
      "count": 1,
      "max": [0],
      "min": [0],
      "type": "SCALAR"
    },
    {
      "bufferView": 51,
      "componentType": 5126,
      "count": 1,
      "max": [-0.36243805289268494, 0, 0, 0.9320078492164612],
      "min": [-0.36243805289268494, 0, 0, 0.9320078492164612],
      "type": "VEC4"
    },
    {
      "bufferView": 52,
      "componentType": 5126,
      "count": 1,
      "max": [0],
      "min": [0],
      "type": "SCALAR"
    },
    {
      "bufferView": 53,
      "componentType": 5126,
      "count": 1,
      "max": [0.30070579051971436, 0, 0, 0.9537169337272644],
      "min": [0.30070579051971436, 0, 0, 0.9537169337272644],
      "type": "VEC4"
    }
  ],
  "materials": [
    {
      "pbrMetallicRoughness": {
        "metallicFactor": 0,
        "roughnessFactor": 1,
        "baseColorTexture": { "index": 0 }
      },
      "alphaMode": "MASK",
      "alphaCutoff": 0.05,
      "doubleSided": true
    }
  ],
  "textures": [{ "sampler": 0, "source": 0, "name": "snale.png" }],
  "samplers": [
    { "magFilter": 9728, "minFilter": 9728, "wrapS": 33071, "wrapT": 33071 }
  ],
  "images": [
    { "mimeType": "image/png", "name": "snale.png", "uri": "snale.png" }
  ],
  "meshes": [
    {
      "primitives": [
        {
          "mode": 4,
          "attributes": { "POSITION": 0, "NORMAL": 1, "TEXCOORD_0": 2 },
          "indices": 3,
          "material": 0
        }
      ]
    },
    {
      "primitives": [
        {
          "mode": 4,
          "attributes": { "POSITION": 4, "NORMAL": 5, "TEXCOORD_0": 6 },
          "indices": 7,
          "material": 0
        }
      ]
    },
    {
      "primitives": [
        {
          "mode": 4,
          "attributes": { "POSITION": 8, "NORMAL": 9, "TEXCOORD_0": 10 },
          "indices": 11,
          "material": 0
        }
      ]
    },
    {
      "primitives": [
        {
          "mode": 4,
          "attributes": { "POSITION": 12, "NORMAL": 13, "TEXCOORD_0": 14 },
          "indices": 15,
          "material": 0
        }
      ]
    },
    {
      "primitives": [
        {
          "mode": 4,
          "attributes": { "POSITION": 16, "NORMAL": 17, "TEXCOORD_0": 18 },
          "indices": 19,
          "material": 0
        }
      ]
    },
    {
      "primitives": [
        {
          "mode": 4,
          "attributes": { "POSITION": 20, "NORMAL": 21, "TEXCOORD_0": 22 },
          "indices": 23,
          "material": 0
        }
      ]
    },
    {
      "primitives": [
        {
          "mode": 4,
          "attributes": { "POSITION": 24, "NORMAL": 25, "TEXCOORD_0": 26 },
          "indices": 27,
          "material": 0
        }
      ]
    },
    {
      "primitives": [
        {
          "mode": 4,
          "attributes": { "POSITION": 28, "NORMAL": 29, "TEXCOORD_0": 30 },
          "indices": 31,
          "material": 0
        }
      ]
    },
    {
      "primitives": [
        {
          "mode": 4,
          "attributes": { "POSITION": 32, "NORMAL": 33, "TEXCOORD_0": 34 },
          "indices": 35,
          "material": 0
        }
      ]
    },
    {
      "primitives": [
        {
          "mode": 4,
          "attributes": { "POSITION": 36, "NORMAL": 37, "TEXCOORD_0": 38 },
          "indices": 39,
          "material": 0
        }
      ]
    },
    {
      "primitives": [
        {
          "mode": 4,
          "attributes": { "POSITION": 40, "NORMAL": 41, "TEXCOORD_0": 42 },
          "indices": 43,
          "material": 0
        }
      ]
    }
  ],
  "animations": [
    {
      "name": "animation",
      "samplers": [
        { "input": 44, "output": 45, "interpolation": "LINEAR" },
        { "input": 46, "output": 47, "interpolation": "LINEAR" },
        { "input": 48, "output": 49, "interpolation": "LINEAR" },
        { "input": 50, "output": 51, "interpolation": "LINEAR" },
        { "input": 52, "output": 53, "interpolation": "LINEAR" }
      ],
      "channels": [
        { "sampler": 0, "target": { "node": 2, "path": "rotation" } },
        { "sampler": 1, "target": { "node": 7, "path": "rotation" } },
        { "sampler": 2, "target": { "node": 10, "path": "rotation" } },
        { "sampler": 3, "target": { "node": 13, "path": "rotation" } },
        { "sampler": 4, "target": { "node": 16, "path": "rotation" } }
      ]
    }
  ]
}
