o unknown
v 1 1 0.25
v 1 1 0
v 0 0 0
v 0 0 0.25
v 0 1 0.25
v 0 1 0
v 1 0 0
v 1 0 0.25
vt 0 0.3125
vt 0 0.25
vt 0.25 0.25
vt 0.25 0.3125
vt 0 0.3125
vt 0 0.25
vt 0.25 0.25
vt 0.25 0.3125
vt 0 0.3125
vt 0 0.25
vt 0.25 0.25
vt 0.25 0.3125
vt 0 0.3125
vt 0 0.25
vt 0.25 0.25
vt 0.25 0.3125
vn -0.7071067811865476 0.7071067811865476 0
vn 0.7071067811865476 -0.7071067811865476 0
vn -0.7071067811865476 -0.7071067811865476 0
vn 0.7071067811865476 0.7071067811865476 0
f 1/1/1 2/2/1 3/3/1 4/4/1
f 4/5/2 3/6/2 2/7/2 1/8/2
f 5/9/3 6/10/3 7/11/3 8/12/3
f 8/13/4 7/14/4 6/15/4 5/16/4
o unknown
v 0.75 0.25 0.5
v 0.75 0.75 0.5
v 0.25 0.75 0.5
v 0.25 0.25 0.5
v 0.25 0.25 0.25
v 0.25 0.75 0.25
v 0.75 0.75 0.25
v 0.75 0.25 0.25
vt 0 0.25
vt 0 0.125
vt 0.125 0.125
vt 0.125 0.25
vt 0.25 0.25
vt 0.25 0.125
vt 0.375 0.125
vt 0.375 0.25
vt 0.5625 0.125
vt 0.5625 0.0625
vt 0.6875 0.0625
vt 0.6875 0.125
vt 0.8125 0.125
vt 0.8125 0.0625
vt 0.9375 0.0625
vt 0.9375 0.125
vt 0.0625 0.375
vt 0.0625 0.3125
vt 0.1875 0.3125
vt 0.1875 0.375
vt 0.3125 0.375
vt 0.3125 0.3125
vt 0.4375 0.3125
vt 0.4375 0.375
vn 0 0 1
vn 0 0 -1
vn 1 0 0
vn -1 0 0
vn 0 1 0
vn 0 -1 0
f 9/17/5 10/18/5 11/19/5 12/20/5
f 13/21/6 14/22/6 15/23/6 16/24/6
f 9/25/7 16/26/7 15/27/7 10/28/7
f 11/29/8 14/30/8 13/31/8 12/32/8
f 10/33/9 15/34/9 14/35/9 11/36/9
f 12/37/10 13/38/10 16/39/10 9/40/10