o unknown
v 1.3877787807814457e-16 0.4375 0.5
v 0.2500000000000001 0.4375 0.5
v 0.25 0.875 0.5
v 1.3877787807814457e-17 0.875 0.5
v 1.3877787807814457e-17 0.875 0.25
v 0.25 0.875 0.25
v 0.2500000000000001 0.4375 0.25
v 1.3877787807814457e-16 0.4375 0.25
vt 0.109375 0
vt 0.109375 0.0625
vt 0 0.0625
vt 0 0
vt 0.25 0
vt 0.25 0.0625
vt 0.359375 0.0625
vt 0.359375 0
vt 0.75 0.203125
vt 0.75 0.140625
vt 0.8125 0.140625
vt 0.8125 0.203125
vt 0.796875 0.203125
vt 0.796875 0.140625
vt 0.859375 0.140625
vt 0.859375 0.203125
vt 0 0.453125
vt 0 0.390625
vt 0.109375 0.390625
vt 0.109375 0.453125
vn 0 0 1
vn 0 0 -1
vn 2.220446049250313e-16 -1 0
vn -2.220446049250313e-16 1 0
vn 1 2.220446049250313e-16 0
f 1/1/1 2/2/1 3/3/1 4/4/1
f 5/5/2 6/6/2 7/7/2 8/8/2
f 1/9/3 8/10/3 7/11/3 2/12/3
f 3/13/4 6/14/4 5/15/4 4/16/4
f 2/17/5 7/18/5 6/19/5 3/20/5
o unknown
v 2.0816681711721685e-16 0.125 0.875
v 0.1875000000000002 0.125 0.875
v 0.1875000000000001 0.5 0.875
v 9.71445146547012e-17 0.5 0.875
v 9.71445146547012e-17 0.5 0.6875
v 0.1875000000000001 0.5 0.6875
v 0.1875000000000002 0.125 0.6875
v 2.0816681711721685e-16 0.125 0.6875
vt 0.09375 0.0625
vt 0.09375 0.109375
vt 0 0.109375
vt 0 0.0625
vt 0.34375 0.0625
vt 0.34375 0.109375
vt 0.25 0.109375
vt 0.25 0.0625
vt 0.5 0.25
vt 0.5 0.203125
vt 0.546875 0.203125
vt 0.546875 0.25
vt 0.796875 0.25
vt 0.796875 0.203125
vt 0.84375 0.203125
vt 0.84375 0.25
vt 0 0.5
vt 0 0.453125
vt 0.09375 0.453125
vt 0.09375 0.5
vn 0 0 1
vn 0 0 -1
vn 2.220446049250313e-16 -1 0
vn -2.220446049250313e-16 1 0
vn 1 2.220446049250313e-16 0
f 9/21/6 10/22/6 11/23/6 12/24/6
f 13/25/7 14/26/7 15/27/7 16/28/7
f 9/29/8 16/30/8 15/31/8 10/32/8
f 11/33/9 14/34/9 13/35/9 12/36/9
f 10/37/10 15/38/10 14/39/10 11/40/10