v -0.5 -0.487779 -0.5
v 0.5 -0.487779 -0.5
v 0.5 0.512221 -0.5
v -0.5 0.512221 -0.5
v -0.5 0.512221 0.499999
v 0.5 0.512221 0.5
v 0.5 -0.487779 0.5
v -0.5 -0.487779 0.5
vn 1.77636e-15 2.38419e-07 1
vn 1.77636e-15 2.38419e-07 1
vn 1.77636e-15 2.38419e-07 1
vn 1.77636e-15 2.38419e-07 1
vn 0 -1.19209e-07 -1
vn 0 -1.19209e-07 -1
vn 0 -1.19209e-07 -1
vn 0 -1.19209e-07 -1
vn 5.32907e-15 1 -1.78814e-07
vn 5.32907e-15 1 -1.78814e-07
vn 5.32907e-15 1 -1.78814e-07
vn 5.32907e-15 1 -1.78814e-07
vn -5.96047e-08 -1 -2.98023e-08
vn -5.96047e-08 -1 -2.98023e-08
vn -5.96047e-08 -1 -2.98023e-08
vn -5.96047e-08 -1 -2.98023e-08
vn -1 -2.38419e-07 -5.96047e-08
vn -1 -2.38419e-07 -5.96047e-08
vn -1 -2.38419e-07 -5.96047e-08
vn -1 -2.38419e-07 -5.96047e-08
vn 1 5.96047e-08 8.9407e-08
vn 1 5.96047e-08 8.9407e-08
vn 1 5.96047e-08 8.9407e-08
vn 1 5.96047e-08 8.9407e-08
vt 0 0
vt 1 0
vt 1 1
vt 0 1
vt 0 0
vt 1 0
vt 1 1
vt 0 1
vt 0 0
vt 1 0
vt 1 1
vt 0 1
vt 0 0
vt 1 0
vt 1 1
vt 0 1
vt 0 0
vt 1 0
vt 1 1
vt 0 1
vt 0 0
vt 1 0
vt 1 1
vt 0 1
f 8/1/1 7/2/2 6/3/3 5/4/4
f 1/5/5 4/6/6 3/7/7 2/8/8
f 4/9/9 5/10/10 6/11/11 3/12/12
f 2/13/13 7/14/14 8/15/15 1/16/16
f 1/17/17 8/18/18 5/19/19 4/20/20
f 3/21/21 6/22/22 7/23/23 2/24/24
