# Blender v3.0.1 OBJ File: ''
# www.blender.org
mtllib pig.mtl
o Cube
v 1.198648 0.335857 0.901023
v 1.198648 0.335857 0.287807
v 1.198648 -0.335857 0.901023
v 1.198648 -0.335857 0.287807
v 0.011366 0.335857 0.901023
v 0.011366 0.335857 0.287807
v 0.011366 -0.335857 0.901023
v 0.011366 -0.335857 0.287807
v 0.901828 0.335857 0.287807
v 0.605007 0.335857 0.287807
v 0.308186 0.335857 0.287807
v 0.901828 -0.335857 0.901023
v 0.605007 -0.335857 0.901023
v 0.308186 -0.335857 0.901023
v 0.308186 -0.335857 0.287807
v 0.605007 -0.335857 0.287807
v 0.901828 -0.335857 0.287807
v 0.308186 0.335857 0.901023
v 0.605007 0.335857 0.901023
v 0.901828 0.335857 0.901023
v 0.011366 0.025494 0.287807
v 0.011366 -0.025494 0.287807
v 1.198648 0.025494 0.901023
v 1.198648 -0.025494 0.901023
v 0.011366 -0.025494 0.901023
v 0.011366 0.025494 0.901023
v 1.198648 -0.025494 0.287807
v 1.198648 0.025494 0.287807
v 0.308186 0.025494 0.287807
v 0.308186 -0.025494 0.287807
v 0.605007 0.025494 0.287807
v 0.605007 -0.025494 0.287807
v 0.901828 0.025494 0.287807
v 0.901828 -0.025494 0.287807
v 0.901828 0.025494 0.901023
v 0.901828 -0.025494 0.901023
v 0.605007 0.025494 0.901023
v 0.605007 -0.025494 0.901023
v 0.308186 0.025494 0.901023
v 0.308186 -0.025494 0.901023
v 0.011366 -0.025494 0.002096
v 0.011366 -0.335857 0.002096
v 0.308186 0.335857 0.002096
v 0.011366 0.335857 0.002096
v 0.901828 -0.335857 0.002096
v 1.198648 -0.335857 0.002096
v 1.198648 0.025494 0.002096
v 1.198648 0.335857 0.002096
v 0.901828 0.335857 0.002096
v 0.308186 -0.335857 0.002096
v 0.308186 -0.025494 0.002096
v 0.901828 -0.025494 0.002096
v 0.011366 0.025494 0.002096
v 1.198648 -0.025494 0.002096
v 0.308186 0.025494 0.002096
v 0.901828 0.025494 0.002096
v -0.047955 -0.009892 0.544221
v -0.048217 -0.180716 0.544506
v -0.042516 -0.180161 0.881972
v -0.041950 0.189551 0.881355
v -0.047651 0.188996 0.543889
v -0.042211 0.018726 0.881640
v -0.047912 0.018172 0.544174
v -0.042254 -0.009337 0.881687
v -0.061502 -0.018230 0.446024
v -0.061830 -0.287162 0.446473
v -0.054690 -0.286289 0.977754
v -0.053982 0.295756 0.976782
v -0.061121 0.294883 0.445501
v -0.054309 0.026824 0.977231
v -0.061449 0.025951 0.445950
v -0.054363 -0.017357 0.977305
v -0.557352 -0.017258 0.456552
v -0.557679 -0.286190 0.457001
v -0.550540 -0.285317 0.988282
v -0.549831 0.296728 0.987310
v -0.556971 0.295855 0.456030
v -0.550159 0.027796 0.987759
v -0.557298 0.026923 0.456478
v -0.550212 -0.016385 0.987833
vt 0.812500 0.666667
vt 0.875000 0.666667
vt 0.875000 0.750000
vt 0.812500 0.750000
vt 0.375000 0.937500
vt 0.625000 0.937500
vt 0.625000 1.000000
vt 0.375000 1.000000
vt 0.312500 0.583333
vt 0.312500 0.500000
vt 0.312500 0.500000
vt 0.312500 0.583333
vt 0.375000 0.666667
vt 0.625000 0.666667
vt 0.625000 0.750000
vt 0.375000 0.750000
vt 0.375000 0.437500
vt 0.625000 0.437500
vt 0.625000 0.500000
vt 0.375000 0.500000
vt 0.375000 0.250000
vt 0.625000 0.250000
vt 0.625000 0.312500
vt 0.375000 0.312500
vt 0.625000 0.375000
vt 0.375000 0.375000
vt 0.375000 0.583333
vt 0.375000 0.583333
vt 0.375000 0.500000
vt 0.187500 0.666667
vt 0.250000 0.666667
vt 0.250000 0.750000
vt 0.187500 0.750000
vt 0.312500 0.666667
vt 0.312500 0.750000
vt 0.625000 0.812500
vt 0.375000 0.812500
vt 0.625000 0.875000
vt 0.375000 0.875000
vt 0.687500 0.666667
vt 0.687500 0.750000
vt 0.750000 0.666667
vt 0.750000 0.750000
vt 0.750000 0.500000
vt 0.812500 0.500000
vt 0.812500 0.583333
vt 0.750000 0.583333
vt 0.687500 0.500000
vt 0.687500 0.583333
vt 0.625000 0.583333
vt 0.250000 0.500000
vt 0.250000 0.583333
vt 0.187500 0.500000
vt 0.187500 0.583333
vt 0.125000 0.583333
vt 0.125000 0.666667
vt 0.375000 1.000000
vt 0.375000 0.937500
vt 0.875000 0.583333
vt 0.875000 0.583333
vt 0.875000 0.666667
vt 0.875000 0.500000
vt 0.312500 0.666667
vt 0.375000 0.666667
vt 0.375000 0.750000
vt 0.312500 0.750000
vt 0.125000 0.666667
vt 0.187500 0.666667
vt 0.187500 0.750000
vt 0.125000 0.750000
vt 0.125000 0.500000
vt 0.187500 0.500000
vt 0.187500 0.583333
vt 0.125000 0.583333
vt 0.375000 0.437500
vt 0.375000 0.166667
vt 0.375000 0.250000
vt 0.375000 0.166667
vt 0.375000 0.000000
vt 0.375000 0.083333
vt 0.375000 0.083333
vt 0.375000 0.000000
vt 0.375000 0.812500
vt 0.375000 0.312500
vt 0.875000 0.500000
vt 0.875000 0.500000
vt 0.875000 0.583333
vt 0.125000 0.666667
vt 0.125000 0.583333
vt 0.375000 0.000000
vt 0.375000 0.083333
vt 0.875000 0.750000
vt 0.375000 0.250000
vt 0.625000 0.250000
vt 0.375000 0.166667
vt 0.625000 1.000000
vt 0.375000 1.000000
vt 0.875000 0.666667
vt 0.875000 0.583333
vt 0.875000 0.666667
vt 0.625000 1.000000
vt 0.375000 1.000000
vt 0.875000 0.750000
vt 0.375000 0.166667
vt 0.375000 0.250000
vt 0.625000 0.250000
vt 0.375000 0.000000
vt 0.375000 0.083333
vt 0.125000 0.666667
vt 0.125000 0.583333
vt 0.375000 0.000000
vt 0.625000 1.000000
vt 0.375000 0.083333
vt 0.125000 0.666667
vt 0.125000 0.583333
vt 0.875000 0.500000
vt 0.375000 1.000000
vt 0.875000 0.750000
vt 0.375000 0.166667
vt 0.375000 0.250000
vt 0.625000 0.250000
vn 0.0000 0.0000 1.0000
vn 0.0000 -1.0000 -0.0000
vn -1.0000 -0.0000 0.0000
vn 1.0000 0.0000 0.0000
vn 0.0000 1.0000 0.0000
vn 0.0000 0.0000 -1.0000
vn -0.3396 0.0007 0.9406
vn 0.9920 -0.0011 0.1260
vn -0.9743 0.0004 -0.2253
vn -0.9742 0.0004 -0.2259
vn -0.3441 0.0007 0.9389
vn -0.3352 0.0007 0.9421
vn -0.9323 0.3616 0.0054
vn -0.9744 0.0004 -0.2248
vn -0.9379 -0.3468 0.0058
vn 0.0212 0.0016 0.9998
vn 0.9926 -0.1203 -0.0145
vn 0.9921 -0.0011 0.1252
vn 0.9906 -0.0016 -0.1370
vn 0.9928 0.1192 -0.0149
vn 0.9907 -0.0016 -0.1362
vn 0.9921 -0.0011 0.1256
vn 0.9906 -0.0016 -0.1366
vn -0.9999 0.0012 0.0134
vn -0.0212 -0.0016 -0.9998
vn -0.0019 -1.0000 0.0017
vn 0.0019 1.0000 -0.0017
usemtl Material
s off
f 40/1/1 25/2/1 7/3/1 14/4/1
f 15/5/2 14/6/2 7/7/2 8/8/2
f 33/9/3 9/10/3 49/11/3 56/12/3
f 27/13/4 24/14/4 3/15/4 4/16/4
f 9/17/5 20/18/5 1/19/5 2/20/5
f 6/21/5 5/22/5 18/23/5 11/24/5
f 11/24/5 18/23/5 19/25/5 10/26/5
f 10/26/5 19/25/5 20/18/5 9/17/5
f 2/20/4 28/27/4 47/28/4 48/29/4
f 30/30/6 32/31/6 16/32/6 15/33/6
f 32/31/6 34/34/6 17/35/6 16/32/6
f 4/16/2 3/15/2 12/36/2 17/37/2
f 17/37/2 12/36/2 13/38/2 16/39/2
f 16/39/2 13/38/2 14/6/2 15/5/2
f 24/14/1 36/40/1 12/41/1 3/15/1
f 36/40/1 38/42/1 13/43/1 12/41/1
f 38/42/1 40/1/1 14/4/1 13/43/1
f 19/44/1 18/45/1 39/46/1 37/47/1
f 37/47/1 39/46/1 40/1/1 38/42/1
f 20/48/1 19/44/1 37/47/1 35/49/1
f 35/49/1 37/47/1 38/42/1 36/40/1
f 1/19/1 20/48/1 35/49/1 23/50/1
f 23/50/1 35/49/1 36/40/1 24/14/1
f 10/51/6 9/10/6 33/9/6 31/52/6
f 31/52/6 33/9/6 34/34/6 32/31/6
f 11/53/6 10/51/6 31/52/6 29/54/6
f 29/54/6 31/52/6 32/31/6 30/30/6
f 28/27/2 33/9/2 56/12/2 47/28/2
f 21/55/6 29/54/6 30/30/6 22/56/6
f 2/20/4 1/19/4 23/50/4 28/27/4
f 28/27/4 23/50/4 24/14/4 27/13/4
f 15/5/2 8/8/2 42/57/2 50/58/2
f 33/9/6 28/27/6 27/13/6 34/34/6
f 25/2/7 26/59/7 62/60/7 64/61/7
f 18/45/1 5/62/1 26/59/1 39/46/1
f 39/46/1 26/59/1 25/2/1 40/1/1
f 52/63/6 54/64/6 46/65/6 45/66/6
f 41/67/6 51/68/6 50/69/6 42/70/6
f 44/71/6 43/72/6 55/73/6 53/74/6
f 49/11/6 48/29/6 47/28/6 56/12/6
f 34/34/5 27/13/5 54/64/5 52/63/5
f 9/17/5 2/20/5 48/29/5 49/75/5
f 30/30/4 15/33/4 50/69/4 51/68/4
f 27/13/4 4/16/4 46/65/4 54/64/4
f 21/76/3 6/21/3 44/77/3 53/78/3
f 17/35/3 34/34/3 52/63/3 45/66/3
f 29/54/2 21/55/2 53/74/2 55/73/2
f 11/53/4 29/54/4 55/73/4 43/72/4
f 8/79/3 22/80/3 41/81/3 42/82/3
f 22/56/5 30/30/5 51/68/5 41/67/5
f 4/16/2 17/37/2 45/83/2 46/65/2
f 6/21/5 11/24/5 43/84/5 44/77/5
f 62/60/8 60/85/8 68/86/8 70/87/8
f 21/55/9 22/56/9 57/88/9 63/89/9
f 22/80/10 8/79/10 58/90/10 57/91/10
f 26/59/11 5/62/11 60/85/11 62/60/11
f 7/3/12 25/2/12 64/61/12 59/92/12
f 5/22/13 6/21/13 61/93/13 60/94/13
f 6/21/14 21/76/14 63/95/14 61/93/14
f 8/8/15 7/7/15 59/96/15 58/97/15
f 72/98/16 70/87/16 78/99/16 80/100/16
f 58/97/17 59/96/17 67/101/17 66/102/17
f 59/92/18 64/61/18 72/98/18 67/103/18
f 61/93/19 63/95/19 71/104/19 69/105/19
f 60/94/20 61/93/20 69/105/20 68/106/20
f 57/91/21 58/90/21 66/107/21 65/108/21
f 64/61/22 62/60/22 70/87/22 72/98/22
f 63/89/23 57/88/23 65/109/23 71/110/23
f 74/111/24 75/112/24 80/100/24 73/113/24
f 71/110/25 65/109/25 73/114/25 79/115/25
f 70/87/16 68/86/16 76/116/16 78/99/16
f 66/102/26 67/101/26 75/112/26 74/117/26
f 67/103/16 72/98/16 80/100/16 75/118/16
f 69/105/25 71/104/25 79/119/25 77/120/25
f 68/106/27 69/105/27 77/120/27 76/121/27
f 65/108/25 66/107/25 74/111/25 73/113/25
f 73/114/24 80/100/24 78/99/24 79/115/24
f 79/119/24 78/99/24 76/116/24 77/120/24
