o unknown
v 0.4375 0.5625 1
v 0.4375 0.5625 0
v 0.4375 0.4375 0
v 0.4375 0.4375 1
v 0.5625 0.4375 1
v 0.5625 0.4375 0
v 0.5625 0.5625 0
v 0.5625 0.5625 1
v 0 0.5 1
v 0 0.5 0
v 1 0.5 0
v 1 0.5 1
v 1 0.5 1
v 1 0.5 0
v 0 0.5 0
v 0 0.5 1
v 0.5 1 1
v 0.5 1 0
v 0.5 0 0
v 0.5 0 1
v 0.5 0 1
v 0.5 0 0
v 0.5 1 0
v 0.5 1 1
vt 0.859375 0.25
vt 0.859375 0
vt 0.890625 0
vt 0.890625 0.25
vt 0.609375 0.25
vt 0.609375 0
vt 0.640625 0
vt 0.640625 0.25
vt 0.359375 0.5
vt 0.359375 0.25
vt 0.390625 0.25
vt 0.390625 0.5
vt 0.109375 0.5
vt 0.109375 0.25
vt 0.140625 0.25
vt 0.140625 0.5
vt 0.25 0.5
vt 0.25 0.25
vt 0.5 0.25
vt 0.5 0.5
vt 0 0.5
vt 0 0.25
vt 0.25 0.25
vt 0.25 0.5
vt 0.75 0.25
vt 0.75 0
vt 1 0
vt 1 0.25
vt 0.5 0.25
vt 0.5 0
vt 0.75 0
vt 0.75 0.25
vt 0.109375 0.140625
vt 0.109375 0.109375
vt 0.140625 0.109375
vt 0.140625 0.140625
vt 0.359375 0.140625
vt 0.359375 0.109375
vt 0.390625 0.109375
vt 0.390625 0.140625
vn -1 0 0
vn 1 0 0
vn 0 -1 0
vn 0 1 0
vn 0 -1 0
vn 0 1 0
vn -1 0 0
vn 1 0 0
vn 0 0 1
vn 0 0 -1
f 1/1/1 2/2/1 3/3/1 4/4/1
f 5/5/2 6/6/2 7/7/2 8/8/2
f 4/9/3 3/10/3 6/11/3 5/12/3
f 8/13/4 7/14/4 2/15/4 1/16/4
f 9/17/5 10/18/5 11/19/5 12/20/5
f 13/21/6 14/22/6 15/23/6 16/24/6
f 17/25/7 18/26/7 19/27/7 20/28/7
f 21/29/8 22/30/8 23/31/8 24/32/8
f 5/33/9 8/34/9 1/35/9 4/36/9
f 3/37/10 2/38/10 7/39/10 6/40/10