o bellow
v 0.062500 0.062500 0.875000
v 0.062500 0.937500 0.875000
v 0.062500 0.062500 0.125000
v 0.062500 0.937500 0.125000
v 0.937500 0.062500 0.875000
v 0.937500 0.937500 0.875000
v 0.937500 0.062500 0.125000
v 0.937500 0.937500 0.125000
v 0.000000 0.000000 0.125000
v 0.000000 1.000000 0.125000
v 0.000000 0.000000 0.000000
v 0.000000 1.000000 0.000000
v 1.000000 0.000000 0.125000
v 1.000000 1.000000 0.125000
v 1.000000 0.000000 0.000000
v 1.000000 1.000000 0.000000
v 0.000000 0.000000 1.000000
v 0.000000 1.000000 1.000000
v 0.000000 0.000000 0.875000
v 0.000000 1.000000 0.875000
v 1.000000 0.000000 1.000000
v 1.000000 1.000000 1.000000
v 1.000000 0.000000 0.875000
v 1.000000 1.000000 0.875000
vn -1.0000 -0.0000 -0.0000
vn -0.0000 -0.0000 -1.0000
vn 1.0000 -0.0000 -0.0000
vn -0.0000 -1.0000 -0.0000
vn -0.0000 1.0000 -0.0000
vn -0.0000 -0.0000 1.0000
vt 0.765625 0.218750
vt 0.984375 0.218750
vt 0.984375 0.031250
vt 0.765625 0.031250
vt 0.000000 0.000000
vt 0.000000 0.250000
vt 0.250000 0.250000
vt 0.250000 0.000000
vt 0.515625 0.031250
vt 0.734375 0.031250
vt 0.734375 0.218750
vt 0.515625 0.218750
vt 0.750000 0.250000
vt 1.000000 0.250000
vt 1.000000 0.218750
vt 0.750000 0.218750
vt 0.484375 0.281250
vt 0.265625 0.281250
vt 0.265625 0.468750
vt 0.484375 0.468750
vt 0.015625 0.281250
vt 0.234375 0.281250
vt 0.234375 0.468750
vt 0.015625 0.468750
vt 0.750000 0.031250
vt 1.000000 0.031250
vt 1.000000 0.000000
vt 0.750000 0.000000
vt 0.500000 0.000000
vt 0.500000 0.031250
vt 0.500000 0.250000
vt 0.250000 0.281250
vt 0.500000 0.281250
vt 0.000000 0.281250
vt 0.500000 0.218750
vt 0.500000 0.468750
vt 0.250000 0.468750
vt 0.250000 0.500000
vt 0.500000 0.500000
vt 0.000000 0.468750
vt 0.000000 0.500000
s 0
f 1/1/1 2/2/1 4/3/1 3/4/1
f 19/5/2 20/6/2 24/7/2 23/8/2
f 7/9/3 8/10/3 6/11/3 5/12/3
f 17/13/1 18/14/1 20/15/1 19/16/1
f 3/17/4 7/18/4 5/19/4 1/20/4
f 8/21/5 4/22/5 2/23/5 6/24/5
f 9/25/1 10/26/1 12/27/1 11/28/1
f 11/5/2 12/6/2 16/7/2 15/8/2
f 15/29/3 16/28/3 14/25/3 13/30/3
f 13/8/6 14/7/6 10/6/6 9/5/6
f 11/31/4 15/7/4 13/32/4 9/33/4
f 16/6/5 12/7/5 10/32/5 14/34/5
f 23/35/3 24/16/3 22/13/3 21/31/3
f 21/8/6 22/7/6 18/6/6 17/5/6
f 19/36/4 23/37/4 21/38/4 17/39/4
f 24/40/5 20/37/5 18/38/5 22/41/5
