# Blender 4.1.0
# www.blender.org
o branch
v 0.250000 0.750000 0.750000
v 0.250000 0.750000 0.250000
v 0.250000 0.250000 0.250000
v 0.250000 0.250000 0.750000
v 0.750000 0.250000 0.750000
v 0.750000 0.250000 0.250000
v 0.750000 0.750000 0.250000
v 0.750000 0.750000 0.750000
v 0.750000 0.250000 0.750000
v 0.750000 0.250000 0.250000
v 1.000000 0.250000 0.250000
v 1.000000 0.250000 0.750000
v 1.000000 0.750000 0.750000
v 1.000000 0.750000 0.250000
v 0.750000 0.750000 0.250000
v 0.750000 0.750000 0.750000
v 0.750000 0.250000 0.750000
v 0.750000 0.250000 0.250000
v 0.750000 0.000000 0.250000
v 0.750000 0.000000 0.750000
v 0.250000 0.000000 0.750000
v 0.250000 0.000000 0.250000
v 0.250000 0.250000 0.250000
v 0.250000 0.250000 0.750000
v 0.750000 0.250000 0.250000
v 0.250000 0.250000 0.250000
v 0.250000 0.250000 -0.000000
v 0.750000 0.250000 -0.000000
v 0.750000 0.750000 -0.000000
v 0.250000 0.750000 -0.000000
v 0.250000 0.750000 0.250000
v 0.750000 0.750000 0.250000
v 0.750000 0.250000 1.000000
v 0.250000 0.250000 1.000000
v 0.250000 0.250000 0.750000
v 0.750000 0.250000 0.750000
v 0.750000 0.750000 0.750000
v 0.250000 0.750000 0.750000
v 0.250000 0.750000 1.000000
v 0.750000 0.750000 1.000000
v 0.250000 1.000000 0.750000
v 0.250000 1.000000 0.250000
v 0.250000 0.750000 0.250000
v 0.250000 0.750000 0.750000
v 0.750000 0.750000 0.750000
v 0.750000 0.750000 0.250000
v 0.750000 1.000000 0.250000
v 0.750000 1.000000 0.750000
v 0.000000 0.250000 0.750000
v 0.000000 0.250000 0.250000
v 0.250000 0.250000 0.250000
v 0.250000 0.250000 0.750000
v 0.250000 0.750000 0.750000
v 0.250000 0.750000 0.250000
v 0.000000 0.750000 0.250000
v 0.000000 0.750000 0.750000
vn -1.0000 -0.0000 -0.0000
vn 1.0000 -0.0000 -0.0000
vn -0.0000 -1.0000 -0.0000
vn -0.0000 1.0000 -0.0000
vn -0.0000 -0.0000 -1.0000
vn -0.0000 -0.0000 1.0000
vt 0.062500 0.187500
vt 0.062500 0.062500
vt 0.187500 0.062500
vt 0.187500 0.187500
vt 0.000000 0.062500
vt 0.000000 0.187500
vt 0.187500 0.250000
vt 0.062500 0.250000
vt 0.000000 0.187500
vt 0.250000 0.062500
vt 0.250000 0.187500
vt 0.187500 0.000000
vt 0.062500 0.000000
vt 0.062500 0.000000
vt 0.187500 0.250000
vt 0.250000 0.062500
s 0
f 1/1/1 2/2/1 3/3/1 4/4/1
f 5/1/2 6/2/2 7/3/2 8/4/2
f 4/4/3 3/3/3 6/2/3 5/1/3
f 8/4/4 7/1/4 2/2/4 1/3/4
f 9/1/3 10/2/3 11/5/3 12/6/3
f 13/7/4 14/8/4 15/1/4 16/4/4
f 10/2/5 15/1/5 14/9/5 11/5/5
f 12/9/6 13/5/6 16/2/6 9/1/6
f 20/8/6 17/1/6 24/4/6 21/7/6
f 20/9/2 19/5/2 18/2/2 17/1/2
f 24/4/1 23/3/1 22/10/1 21/11/1
f 22/12/5 23/3/5 18/2/5 19/13/5
f 5/1/6 8/2/6 1/3/6 4/4/6
f 3/3/5 2/4/5 7/1/5 6/2/5
f 25/2/3 26/3/3 27/12/3 28/14/3
f 29/9/4 30/5/4 31/2/4 32/1/4
f 26/3/1 31/2/1 30/13/1 27/12/1
f 28/13/2 29/12/2 32/3/2 25/2/2
f 33/8/3 34/15/3 35/4/3 36/1/3
f 37/4/4 38/3/4 39/10/4 40/11/4
f 34/7/1 39/8/1 38/1/1 35/4/1
f 36/1/2 37/4/2 40/7/2 33/8/2
f 41/9/1 42/5/1 43/2/1 44/1/1
f 45/4/2 46/3/2 47/10/2 48/11/2
f 43/4/5 42/7/5 47/8/5 46/1/5
f 45/2/6 48/13/6 41/12/6 44/3/6
f 49/11/3 50/16/3 51/3/3 52/4/3
f 53/3/4 54/2/4 55/13/4 56/12/4
f 50/10/5 55/11/5 54/4/5 51/3/5
f 52/4/6 53/3/6 56/10/6 49/11/6
f 12/1/2 11/2/2 14/3/2 13/4/2
f 33/1/6 40/2/6 39/3/6 34/4/6
f 27/3/5 30/4/5 29/1/5 28/2/5
f 56/1/1 55/2/1 50/3/1 49/4/1
f 48/4/4 47/1/4 42/2/4 41/3/4
f 21/4/3 22/3/3 19/2/3 20/1/3
