# Blender 4.1.0
# www.blender.org
o unknown
v 0.062500 0.937500 1.000000
v 0.062500 0.937500 -0.000000
v 0.062500 0.062500 -0.000000
v 0.062500 0.062500 1.000000
v 0.937500 0.062500 1.000000
v 0.937500 0.062500 -0.000000
v 0.937500 0.937500 -0.000000
v 0.937500 0.937500 1.000000
v 0.000000 0.062500 1.000000
v 0.000000 0.062500 -0.000000
v 1.000000 0.062500 -0.000000
v 1.000000 0.062500 1.000000
v 1.000000 0.937500 1.000000
v 1.000000 0.937500 -0.000000
v 0.000000 0.937500 -0.000000
v 0.000000 0.937500 1.000000
v 0.062500 1.000000 1.000000
v 0.062500 1.000000 -0.000000
v 0.062500 0.000000 0.000000
v 0.062500 0.000000 1.000000
v 0.937500 0.000000 1.000000
v 0.937500 0.000000 0.000000
v 0.937500 1.000000 -0.000000
v 0.937500 1.000000 1.000000
v 0.000000 0.935558 1.000000
v 0.000000 0.935558 -0.000000
v 1.000000 0.935558 -0.000000
v 1.000000 0.935558 1.000000
v 0.935593 1.000000 1.000000
v 0.935593 1.000000 -0.000000
v 0.935593 0.000000 1.000000
v 0.935593 0.000000 0.000000
v 0.000000 0.064500 1.000000
v 0.000000 0.064500 -0.000000
v 1.000000 0.064500 -0.000000
v 1.000000 0.064500 1.000000
v 0.065609 0.997574 1.000796
v 0.065609 0.997574 0.000796
v 0.065609 -0.002426 1.000796
v 0.065609 -0.002426 0.000796
vn -0.0000 -1.0000 -0.0000
vn -0.0000 1.0000 -0.0000
vn -1.0000 -0.0000 -0.0000
vn 1.0000 -0.0000 -0.0000
vn -0.0000 -0.0000 1.0000
vn -0.0000 -0.0000 -1.0000
vt 0.250000 0.500000
vt 0.250000 0.250000
vt 0.500000 0.250000
vt 0.500000 0.500000
vt 0.000000 0.500000
vt 0.000000 0.250000
vt 0.750000 0.250000
vt 0.750000 0.000000
vt 1.000000 0.000000
vt 1.000000 0.250000
vt 0.500000 0.000000
vt 0.000000 0.000000
vt 0.250000 0.000000
s 0
f 9/1/1 10/2/1 11/3/1 12/4/1
f 13/5/2 14/6/2 15/2/2 16/1/2
f 17/7/3 18/8/3 19/9/3 20/10/3
f 21/3/4 22/11/4 23/8/4 24/7/4
f 5/6/5 8/12/5 1/13/5 4/2/5
f 3/2/6 2/13/6 7/11/6 6/3/6
f 25/1/1 26/2/1 27/3/1 28/4/1
f 29/7/3 30/8/3 32/9/3 31/10/3
f 33/1/2 36/4/2 35/3/2 34/2/2
f 37/7/4 39/10/4 40/9/4 38/8/4
