o cube
v 1 0 0.0625
v 1 1 0.0625
v 0 1 0.0625
v 0 0 0.0625
v 0 0 0
v 0 1 0
v 1 1 0
v 1 0 0
vt 0 0.25
vt 0 0
vt 0.25 0
vt 0.25 0.25
vt 0.25 0.25
vt 0.25 0
vt 0.5 0
vt 0.5 0.25
vt 0.5 0.25
vt 0.515625 0.25
vt 0.515625 0
vt 0.5 0
vt 1 0
vt 0.984375 0
vt 0.984375 0.25
vt 1 0.25
vt 0 0.265625
vt 0 0.25
vt 0.25 0.25
vt 0.25 0.265625
vt 0.25 0.5
vt 0.25 0.484375
vt 0.5 0.484375
vt 0.5 0.5
vn 0 0 1
vn 0 0 -1
vn 1 0 0
vn -1 0 0
vn 0 1 0
vn 0 -1 0
f 1/1/1 2/2/1 3/3/1 4/4/1
f 5/5/2 6/6/2 7/7/2 8/8/2
f 1/9/3 8/10/3 7/11/3 2/12/3
f 3/13/4 6/14/4 5/15/4 4/16/4
f 2/17/5 7/18/5 6/19/5 3/20/5
f 4/21/6 5/22/6 8/23/6 1/24/6