o top0
v 0.625 0.4375 0.1875
v 0.625 0.5625 0.1875
v 0.375 0.4375 0.1875
v 0.375 0.5625 0.1875
vt 0.1875 0.25
vt 0.1875 0.21875
vt 0.25 0.21875
vt 0.25 0.25
vn 0 2.220446049250313e-16 1
f 1/1/1 2/2/1 4/3/1 3/4/1
o top1
v 0.4375 0.3750000000000001 0.4375
v 0.5625 0.3750000000000001 0.4375
v 0.4375 0.6250000000000001 0.4375
v 0.5625 0.6250000000000001 0.4375
vt 0.1875 0.21875
vt 0.1875 0.25
vt 0.25 0.25
vt 0.25 0.21875
vn 0 2.220446049250313e-16 1
f 5/5/2 6/6/2 8/7/2 7/8/2
o top2
v 0.625 0.4375000000000001 0.6875
v 0.625 0.5625000000000001 0.6875
v 0.375 0.4375000000000001 0.6875
v 0.375 0.5625000000000001 0.6875
vt 0.1875 0.25
vt 0.1875 0.21875
vt 0.25 0.21875
vt 0.25 0.25
vn 0 2.220446049250313e-16 1
f 9/9/3 10/10/3 12/11/3 11/12/3
o top3
v 0.4375 0.3750000000000002 0.9375
v 0.5625 0.3750000000000002 0.9375
v 0.4375 0.6250000000000002 0.9375
v 0.5625 0.6250000000000002 0.9375
vt 0.1875 0.21875
vt 0.1875 0.25
vt 0.25 0.25
vt 0.25 0.21875
vn 0 2.220446049250313e-16 1
f 13/13/4 14/14/4 16/15/4 15/16/4
o bottom0
v 0.5625 0.375 0.125
v 0.4375 0.375 0.125
v 0.5625 0.625 0.12499999999999999
v 0.4375 0.625 0.12499999999999999
vt 0.1875 0.21875
vt 0.1875 0.1875
vt 0.25 0.1875
vt 0.25 0.21875
vn -2.5407181807812022e-33 -9.957992501029599e-17 -1
f 17/17/5 18/18/5 20/19/5 19/20/5
o bottom1
v 0.625 0.5625000000000001 0.375
v 0.625 0.4375000000000001 0.375
v 0.375 0.5625000000000001 0.375
v 0.375 0.4375000000000001 0.375
vt 0.1875 0.1875
vt 0.1875 0.21875
vt 0.25 0.21875
vt 0.25 0.1875
vn 0 -9.957992501029599e-17 -1
f 21/21/6 22/22/6 24/23/6 23/24/6
o bottom2
v 0.5625 0.3750000000000001 0.625
v 0.4375 0.3750000000000001 0.625
v 0.5625 0.6250000000000001 0.625
v 0.4375 0.6250000000000001 0.625
vt 0.1875 0.21875
vt 0.1875 0.1875
vt 0.25 0.1875
vt 0.25 0.21875
vn -2.5407181807812022e-33 -9.957992501029599e-17 -1
f 25/25/7 26/26/7 28/27/7 27/28/7
o bottom3
v 0.625 0.5625000000000002 0.875
v 0.625 0.4375000000000002 0.875
v 0.375 0.5625000000000002 0.875
v 0.375 0.4375000000000002 0.875
vt 0.1875 0.1875
vt 0.1875 0.21875
vt 0.25 0.21875
vt 0.25 0.1875
vn 0 -9.957992501029599e-17 -1
f 29/29/8 30/30/8 32/31/8 31/32/8
o cube
v 0.375 0.4375000000000002 1
v 0.625 0.4375000000000002 1
v 0.375 0.4375 1.3877787807814463e-17
v 0.625 0.4375 1.387778780781445e-17
v 0.375 0.5625000000000002 1
v 0.625 0.5625000000000002 1
v 0.375 0.5625 -1.387778780781445e-17
v 0.625 0.5625 -1.3877787807814463e-17
v 0.5625 0.4375000000000002 1
v 0.5625 0.5625000000000002 1
v 0.5625 0.4375 1.3877787807814463e-17
v 0.5625 0.5625 -1.387778780781445e-17
v 0.4375 0.5625000000000002 1
v 0.4375 0.4375000000000002 1
v 0.4375 0.5625 -1.3877787807814463e-17
v 0.4375 0.4375 1.387778780781445e-17
vt 0.09375 0
vt 0.09375 0.25
vt 0.03125 0.25
vt 0.03125 0
vt 0.09375 0
vt 0.09375 0.25
vt 0.03125 0.25
vt 0.03125 0
vt 0.03125 0
vt 0.03125 0.25
vt 0 0.25
vt 0 0
vt 0.03125 0
vt 0.03125 0.25
vt 0 0.25
vt 0 0
vt 0.03125 0
vt 0.03125 0.25
vt 0 0.25
vt 0 0
vt 0.03125 0
vt 0.03125 0.25
vt 0 0.25
vt 0 0
vt 0.1875 0.125
vt 0.1875 0.15625
vt 0.25 0.15625
vt 0.25 0.125
vt 0.1875 0.1875
vt 0.1875 0.15625
vt 0.25 0.15625
vt 0.25 0.1875
vn 2.220446049250313e-16 -1 2.220446049250313e-16
vn -2.220446049250313e-16 1 -2.220446049250313e-16
vn -1 -2.220446049250313e-16 4.930380657631324e-32
vn 1 2.220446049250313e-16 -4.930380657631324e-32
vn -1 -2.220446049250313e-16 4.930380657631324e-32
vn 1 2.220446049250313e-16 -4.930380657631324e-32
vn 0 -2.220446049250313e-16 -1
vn 0 2.220446049250313e-16 1
f 36/33/9 34/34/9 33/35/9 35/36/9
f 39/37/10 37/38/10 38/39/10 40/40/10
f 35/41/11 33/42/11 37/43/11 39/44/11
f 40/45/12 38/46/12 34/47/12 36/48/12
f 43/49/13 41/50/13 42/51/13 44/52/13
f 47/53/14 45/54/14 46/55/14 48/56/14
f 40/57/15 36/58/15 35/59/15 39/60/15
f 34/61/16 38/62/16 37/63/16 33/64/16
o cube
v 0.5625 0.3750000000000002 1
v 0.5625 0.6250000000000002 1
v 0.5625 0.375 2.7755575615628914e-17
v 0.5625 0.625 -2.7755575615628914e-17
v 0.4375 0.3750000000000002 1
v 0.4375 0.6250000000000002 1
v 0.4375 0.375 2.7755575615628914e-17
v 0.4375 0.625 -2.7755575615628914e-17
v 0.4375 0.4375000000000002 1
v 0.5625 0.4375000000000002 1
v 0.4375 0.4375 1.3877787807814457e-17
v 0.5625 0.4375 1.3877787807814457e-17
v 0.5625 0.5625000000000002 1
v 0.4375 0.5625000000000002 1
v 0.5625 0.5625 -1.3877787807814457e-17
v 0.4375 0.5625 -1.3877787807814457e-17
vt 0.1875 0
vt 0.1875 0.25
vt 0.125 0.25
vt 0.125 0
vt 0.1875 0
vt 0.1875 0.25
vt 0.125 0.25
vt 0.125 0
vt 0.125 0
vt 0.125 0.25
vt 0.09375 0.25
vt 0.09375 0
vt 0.125 0
vt 0.125 0.25
vt 0.09375 0.25
vt 0.09375 0
vt 0.125 0
vt 0.125 0.25
vt 0.09375 0.25
vt 0.09375 0
vt 0.125 0
vt 0.125 0.25
vt 0.09375 0.25
vt 0.09375 0
vn 1 0 0
vn -1 0 0
vn 0 -1 2.220446049250313e-16
vn 0 1 -2.220446049250313e-16
vn 0 1 -2.220446049250313e-16
vn 0 -1 2.220446049250313e-16
f 52/65/17 50/66/17 49/67/17 51/68/17
f 55/69/18 53/70/18 54/71/18 56/72/18
f 51/73/19 49/74/19 53/75/19 55/76/19
f 56/77/20 54/78/20 50/79/20 52/80/20
f 59/81/21 57/82/21 58/83/21 60/84/21
f 63/85/22 61/86/22 62/87/22 64/88/22