# Blender 4.5.1 LTS
# www.blender.org
o cube
v 1.000000 1.000000 0.250000
v 1.000000 0.000000 0.250000
v 0.000000 1.000000 0.250000
v 0.000000 0.000000 0.250000
v 0.000000 1.000000 0.000000
v 0.000000 0.000000 0.000000
v 1.000000 1.000000 0.000000
v 1.000000 0.000000 0.000000
vn -0.0000 -0.0000 1.0000
vn -0.0000 -0.0000 -1.0000
vn 1.0000 -0.0000 -0.0000
vn -1.0000 -0.0000 -0.0000
vn -0.0000 1.0000 -0.0000
vn -0.0000 -1.0000 -0.0000
vt 0.000000 0.250000
vt 0.000000 0.000000
vt 0.250000 0.000000
vt 0.250000 0.250000
vt 0.750000 0.500000
vt 0.750000 0.250000
vt 1.000000 0.250000
vt 1.000000 0.500000
vt 0.500000 0.062500
vt 0.500000 0.000000
vt 0.750000 0.000000
vt 0.750000 0.062500
vt 1.000000 0.000000
vt 1.000000 0.062500
vt 0.000000 0.312500
vt 0.250000 0.312500
vt 0.500000 0.250000
vt 0.500000 0.312500
s 1
f 2/1/1 1/2/1 3/3/1 4/4/1
f 6/5/2 5/6/2 7/7/2 8/8/2
f 2/9/3 8/10/3 7/11/3 1/12/3
f 3/12/4 5/11/4 6/13/4 4/14/4
f 1/15/5 7/1/5 5/4/5 3/16/5
f 4/16/6 6/4/6 8/17/6 2/18/6
