o unknown
v 0.8125 0.1875 0.75
v 0.8125 0.8125 0.75
v 0.1875 0.8125 0.75
v 0.1875 0.1875 0.75
v 0.1875 0.1875 0
v 0.1875 0.8125 0
v 0.8125 0.8125 0
v 0.8125 0.1875 0
vt 0.296875 0.203125
vt 0.296875 0.046875
vt 0.453125 0.046875
vt 0.453125 0.203125
vt 0.546875 0.1875
vt 0.546875 0
vt 0.703125 0
vt 0.703125 0.1875
vt 0.796875 0.1875
vt 0.796875 0
vt 0.953125 0
vt 0.953125 0.1875
vt 0.046875 0.4375
vt 0.046875 0.25
vt 0.203125 0.25
vt 0.203125 0.4375
vt 0.296875 0.4375
vt 0.296875 0.25
vt 0.453125 0.25
vt 0.453125 0.4375
vn 0 0 -1
vn 1 0 0
vn -1 0 0
vn 0 1 0
vn 0 -1 0
f 5/1/1 6/2/1 7/3/1 8/4/1
f 1/5/2 8/6/2 7/7/2 2/8/2
f 3/9/3 6/10/3 5/11/3 4/12/3
f 2/13/4 7/14/4 6/15/4 3/16/4
f 4/17/5 5/18/5 8/19/5 1/20/5
o unknown
v 0.875 0.125 1
v 0.875 0.875 1
v 0.125 0.875 1
v 0.125 0.125 1
v 0.125 0.125 0.75
v 0.125 0.875 0.75
v 0.875 0.875 0.75
v 0.875 0.125 0.75
vt 0.03125 0.21875
vt 0.03125 0.03125
vt 0.21875 0.03125
vt 0.21875 0.21875
vt 0.03125 0.21875
vt 0.03125 0.03125
vt 0.21875 0.03125
vt 0.21875 0.21875
vt 0.53125 0.25
vt 0.53125 0.1875
vt 0.71875 0.1875
vt 0.71875 0.25
vt 0.78125 0.25
vt 0.78125 0.1875
vt 0.96875 0.1875
vt 0.96875 0.25
vt 0.03125 0.5
vt 0.03125 0.4375
vt 0.21875 0.4375
vt 0.21875 0.5
vt 0.28125 0.5
vt 0.28125 0.4375
vt 0.46875 0.4375
vt 0.46875 0.5
vn 0 0 1
vn 0 0 -1
vn 1 0 0
vn -1 0 0
vn 0 1 0
vn 0 -1 0
f 9/21/6 10/22/6 11/23/6 12/24/6
f 13/25/7 14/26/7 15/27/7 16/28/7
f 9/29/8 16/30/8 15/31/8 10/32/8
f 11/33/9 14/34/9 13/35/9 12/36/9
f 10/37/10 15/38/10 14/39/10 11/40/10
f 12/41/11 13/42/11 16/43/11 9/44/11