v 0.375 0.625 0
v 0.375 0.625 1
v 0.375 0.375 0
v 0.375 0.375 1
v 0.625 0.375 0
v 0.625 0.375 1
v 0.625 0.625 0
v 0.625 0.625 1
v 0 0.4375 0.1875
v 0 0.4375 0.375
v 1 0.4375 0.1875
v 1 0.4375 0.375
v 1 0.5625 0.1875
v 1 0.5625 0.375
v 0 0.5625 0.1875
v 0 0.5625 0.375
v 0 0.4375 0.625
v 0 0.4375 0.8125
v 1 0.4375 0.625
v 1 0.4375 0.8125
v 1 0.5625 0.625
v 1 0.5625 0.8125
v 0 0.5625 0.625
v 0 0.5625 0.8125
v 0.4375 1 0.1875
v 0.4375 1 0.375
v 0.4375 0 0.1875
v 0.4375 0 0.375
v 0.5625 0 0.1875
v 0.5625 0 0.375
v 0.5625 1 0.1875
v 0.5625 1 0.375
v 0.4375 1 0.625
v 0.4375 1 0.8125
v 0.4375 0 0.625
v 0.4375 0 0.8125
v 0.5625 0 0.625
v 0.5625 0 0.8125
v 0.5625 1 0.625
v 0.5625 1 0.8125
vt 0.84375 0
vt 0.84375 0.25
vt 0.90625 0
vt 0.90625 0.25
vt 0.59375 0
vt 0.59375 0.25
vt 0.65625 0
vt 0.65625 0.25
vt 0.34375 0.25
vt 0.34375 0.5
vt 0.40625 0.25
vt 0.40625 0.5
vt 0.09375 0.25
vt 0.09375 0.5
vt 0.15625 0.25
vt 0.15625 0.5
vt 0.25 0.296875
vt 0.25 0.34375
vt 0.5 0.296875
vt 0.5 0.34375
vt 0 0.296875
vt 0 0.34375
vt 0.25 0.109375
vt 0.25 0.140625
vt 0.5 0.109375
vt 0.5 0.140625
vt 0 0.109375
vt 0 0.140625
vt 0.25 0.40625
vt 0.25 0.453125
vt 0.5 0.40625
vt 0.5 0.453125
vt 0 0.40625
vt 0 0.453125
vt 0.75 0.046875
vt 0.75 0.09375
vt 1 0.046875
vt 1 0.09375
vt 0.5 0.046875
vt 0.5 0.09375
vt 0.75 0.15625
vt 0.75 0.203125
vt 1 0.15625
vt 1 0.203125
vt 0.5 0.15625
vt 0.5 0.203125
vt 0.09375 0.09375
vt 0.09375 0.15625
vt 0.15625 0.09375
vt 0.15625 0.15625
vt 0.34375 0.09375
vt 0.34375 0.15625
vt 0.40625 0.09375
vt 0.40625 0.15625
vn -1 0 0
vn 1 0 0
vn 0 -1 0
vn 0 1 0
vn 0 0 -1
vn 0 0 1
f 2/2/1 1/1/1 3/3/1 4/4/1
f 6/6/2 5/5/2 7/7/2 8/8/2
f 4/10/3 3/9/3 5/11/3 6/12/3
f 8/14/4 7/13/4 1/15/4 2/16/4
f 10/18/3 9/17/3 11/19/3 12/20/3
f 14/22/4 13/21/4 15/17/4 16/18/4
f 9/24/5 15/23/5 13/25/5 11/26/5
f 12/28/6 14/27/6 16/23/6 10/24/6
f 18/30/3 17/29/3 19/31/3 20/32/3
f 22/34/4 21/33/4 23/29/4 24/30/4
f 17/24/5 23/23/5 21/25/5 19/26/5
f 20/28/6 22/27/6 24/23/6 18/24/6
f 26/36/1 25/35/1 27/37/1 28/38/1
f 30/40/2 29/39/2 31/35/2 32/36/2
f 27/25/5 25/23/5 31/24/5 29/26/5
f 30/23/6 32/27/6 26/28/6 28/24/6
f 34/42/1 33/41/1 35/43/1 36/44/1
f 38/46/2 37/45/2 39/41/2 40/42/2
f 35/25/5 33/23/5 39/24/5 37/26/5
f 38/23/6 40/27/6 34/28/6 36/24/6
f 6/48/6 8/47/6 2/49/6 4/50/6
f 3/52/5 1/51/5 7/53/5 5/54/5
