o plane
v 0 0.5 -2.7755575615628914e-17
v 0 1.2071067811865475 0.7071067811865476
v 1 1.2071067811865475 0.7071067811865476
v 1 0.5 -2.7755575615628914e-17
vt 0 0
vt 0 0.25
vt 0.25 0.25
vt 0.25 0
vn 0 0.7071067811865476 -0.7071067811865475
f 1/1/1 2/2/1 3/3/1 4/4/1
o plane
v 1 0.5 -2.7755575615628914e-17
v 1 1.2071067811865475 0.7071067811865476
v 0 1.2071067811865475 0.7071067811865476
v 0 0.5 -2.7755575615628914e-17
vt 0.25 0
vt 0.25 0.25
vt 0 0.25
vt 0 0
vn 0 -0.7071067811865476 0.7071067811865475
f 5/5/2 6/6/2 7/7/2 8/8/2
o plane
v 0.9375 0.4999999999999995 -8.326672684688674e-16
v 0.9375 -0.2071067811865484 0.7071067811865466
v -0.0625 -0.20710678118654696 0.7071067811865481
v -0.0625 0.5000000000000009 6.106226635438361e-16
vt 0 0
vt 0 0.25
vt 0.25 0.25
vt 0.25 0
vn -2.109423746787797e-15 -0.7071067811865474 -0.7071067811865478
f 9/9/3 10/10/3 11/11/3 12/12/3
o plane
v -0.0625 0.500000000000001 6.869504964868156e-16
v -0.0625 -0.2071067811865469 0.7071067811865481
v 0.9375 -0.20710678118654835 0.7071067811865467
v 0.9375 0.49999999999999956 -7.91033905045424e-16
vt 0.25 0
vt 0.25 0.25
vt 0 0.25
vt 0 0
vn 1.9984014443252814e-15 0.7071067811865474 0.7071067811865478
f 13/13/4 14/14/4 15/15/4 16/16/4
o plane
v 0.43750000000000033 1.0312500000000007 1.1032841307212493e-15
v -0.2696067811865476 1.0312499999999991 0.7071067811865483
v -0.2696067811865476 0.03124999999999913 0.7071067811865462
v 0.43750000000000033 0.03125000000000068 -1.0061396160665481e-15
vt 0.25 0
vt 0.25 0.25
vt 0 0.25
vt 0 0
vn 0.7071067811865472 -1.5543122344752192e-15 0.7071067811865479
f 17/17/5 18/18/5 19/19/5 20/20/5
o plane
v 0.4375000000000002 0.03125000000000072 -1.0547118733938987e-15
v -0.2696067811865477 0.031249999999999167 0.7071067811865461
v -0.2696067811865477 1.0312499999999991 0.7071067811865483
v 0.4375000000000002 1.0312500000000007 1.0547118733938987e-15
vt 0 0
vt 0 0.25
vt 0.25 0.25
vt 0.25 0
vn -0.7071067811865472 1.5543122344752192e-15 -0.7071067811865479
f 21/21/6 22/22/6 23/23/6 24/24/6
o plane
v 0.49999999999999895 0.9687499999999996 4.371503159461554e-16
v 1.2071067811865486 0.9687500000000004 0.7071067811865459
v 1.2071067811865486 -0.031249999999999667 0.707106781186547
v 0.49999999999999895 -0.031250000000000444 1.547373340571312e-15
vt 0 0
vt 0 0.25
vt 0.25 0.25
vt 0.25 0
vn 0.7071067811865455 -7.771561172376094e-16 -0.7071067811865497
f 25/25/7 26/26/7 27/27/7 28/28/7
o plane
v 0.49999999999999895 -0.031250000000000444 1.547373340571312e-15
v 1.2071067811865486 -0.031249999999999667 0.707106781186547
v 1.2071067811865486 0.9687500000000004 0.7071067811865459
v 0.49999999999999895 0.9687499999999996 4.371503159461554e-16
vt 0.25 0
vt 0.25 0.25
vt 0 0.25
vt 0 0
vn -0.7071067811865455 8.326672684688672e-16 0.7071067811865497
f 29/29/8 30/30/8 31/31/8 32/32/8