# Blender 4.5.1 LTS
# www.blender.org
o cube
v 1.000000 1.000000 0.750000
v 1.000000 -0.000000 0.750000
v 0.000000 1.000000 0.750000
v 0.000000 0.000000 0.750000
v 0.000000 1.000000 0.000000
v 0.000000 0.000000 0.000000
v 1.000000 1.000000 0.000000
v 1.000000 -0.000000 0.000000
vn -0.0000 -0.0000 1.0000
vn -0.0000 -0.0000 -1.0000
vn 1.0000 -0.0000 -0.0000
vn -1.0000 -0.0000 -0.0000
vn -0.0000 1.0000 -0.0000
vn -0.0000 -1.0000 -0.0000
vt 0.500000 0.500000
vt 0.500000 0.250000
vt 0.750000 0.250000
vt 0.750000 0.500000
vt 0.250000 0.250000
vt 0.250000 0.000000
vt 0.500000 0.000000
vt 0.500000 0.187500
vt 0.750000 0.000000
vt 0.750000 0.187500
vt 1.000000 0.000000
vt 1.000000 0.187500
vt 0.000000 0.687500
vt 0.000000 0.500000
vt 0.250000 0.500000
vt 0.250000 0.687500
vt 0.250000 0.437500
vt 0.500000 0.437500
s 1
f 2/1/1 1/2/1 3/3/1 4/4/1
f 6/5/2 5/6/2 7/7/2 8/2/2
f 2/8/3 8/7/3 7/9/3 1/10/3
f 3/10/4 5/9/4 6/11/4 4/12/4
f 1/13/5 7/14/5 5/15/5 3/16/5
f 4/17/6 6/5/6 8/2/6 2/18/6
