# Made in Blockbench 5.1.6
mtllib cactus.mtl

o plane
v 0 0.25 1
v 0 0.2500000000000002 0
v 1 0.2500000000000002 0
v 1 0.25 1
v 1 0.25 1
v 1 0.2500000000000002 0
v 0 0.2500000000000002 0
v 0 0.25 1
vt 0 0
vt 0 0.25
vt 0.25 0.25
vt 0.25 0
vt 0.25 0
vt 0.25 0.25
vt 0 0.25
vt 0 0
vn 0 -1 -2.220446049250313e-16
vn 0 1 2.220446049250313e-16
usemtl m_1acad220-fa16-5237-1410-eaec2bc6465a
f 1/1/1 2/2/1 3/3/1 4/4/1
f 5/5/2 6/6/2 7/7/2 8/8/2
o plane
v 0.0625 0.24999999999999997 0.4375
v 0.0625 0.5151650429449552 0.1723349570550447
v 0.9375 0.5151650429449552 0.1723349570550447
v 0.9375 0.24999999999999997 0.4375
v 0.9375 0.24999999999999997 0.4375
v 0.9375 0.5151650429449552 0.1723349570550447
v 0.0625 0.5151650429449552 0.1723349570550447
v 0.0625 0.24999999999999997 0.4375
vt 0.015625 0.3125
vt 0.015625 0.40625
vt 0.234375 0.40625
vt 0.234375 0.3125
vt 0.234375 0.3125
vt 0.234375 0.40625
vt 0.015625 0.40625
vt 0.015625 0.3125
vn 0 -0.7071067811865476 -0.7071067811865475
vn 0 0.7071067811865476 0.7071067811865475
usemtl m_1acad220-fa16-5237-1410-eaec2bc6465a
f 9/9/3 10/10/3 11/11/3 12/12/3
f 13/13/4 14/14/4 15/15/4 16/16/4
o plane
v 0.5624999999999994 0.25000000000000006 0.0625
v 0.8276650429449547 0.5151650429449555 0.06249999999999978
v 0.8276650429449558 0.5151650429449552 0.9374999999999998
v 0.5625000000000006 0.2499999999999999 0.9375
v 0.5625000000000006 0.2499999999999999 0.9375
v 0.8276650429449558 0.5151650429449552 0.9374999999999998
v 0.8276650429449547 0.5151650429449555 0.06249999999999978
v 0.5624999999999994 0.25000000000000006 0.0625
vt 0.015625 0.3125
vt 0.015625 0.40625
vt 0.234375 0.40625
vt 0.234375 0.3125
vt 0.234375 0.3125
vt 0.234375 0.40625
vt 0.015625 0.40625
vt 0.015625 0.3125
vn 0.7071067811865476 -0.7071067811865475 -1.0205600981444537e-15
vn -0.7071067811865476 0.7071067811865475 1.0205600981444537e-15
usemtl m_1acad220-fa16-5237-1410-eaec2bc6465a
f 17/17/5 18/18/5 19/19/5 20/20/5
f 21/21/6 22/22/6 23/23/6 24/24/6
o plane
v 0.9375 0.25000000000000017 0.5624999999999992
v 0.9375000000000004 0.515165042944955 0.827665042944955
v 0.06250000000000039 0.5151650429449547 0.8276650429449566
v 0.0625 0.2499999999999998 0.5625000000000008
v 0.0625 0.2499999999999998 0.5625000000000008
v 0.06250000000000039 0.5151650429449547 0.8276650429449566
v 0.9375000000000004 0.515165042944955 0.827665042944955
v 0.9375 0.25000000000000017 0.5624999999999992
vt 0.015625 0.3125
vt 0.015625 0.40625
vt 0.234375 0.40625
vt 0.234375 0.3125
vt 0.234375 0.3125
vt 0.234375 0.40625
vt 0.015625 0.40625
vt 0.015625 0.3125
vn 1.5634279183703363e-15 -0.7071067811865488 0.7071067811865462
vn -1.5634279183703363e-15 0.7071067811865488 -0.7071067811865462
usemtl m_1acad220-fa16-5237-1410-eaec2bc6465a
f 25/25/7 26/26/7 27/27/7 28/28/7
f 29/29/8 30/30/8 31/31/8 32/32/8
o plane
v 0.4375000000000002 0.25000000000000006 0.9375
v 0.1723349570550441 0.5151650429449547 0.9375
v 0.17233495705504376 0.5151650429449545 0.06250000000000011
v 0.43749999999999983 0.2499999999999999 0.06250000000000006
v 0.43749999999999983 0.2499999999999999 0.06250000000000006
v 0.17233495705504376 0.5151650429449545 0.06250000000000011
v 0.1723349570550441 0.5151650429449547 0.9375
v 0.4375000000000002 0.25000000000000006 0.9375
vt 0.015625 0.3125
vt 0.015625 0.40625
vt 0.234375 0.40625
vt 0.234375 0.3125
vt 0.234375 0.3125
vt 0.234375 0.40625
vt 0.015625 0.40625
vt 0.015625 0.3125
vn -0.7071067811865455 -0.7071067811865496 4.710277376051322e-16
vn 0.7071067811865455 0.7071067811865496 -4.710277376051322e-16
usemtl m_1acad220-fa16-5237-1410-eaec2bc6465a
f 33/33/9 34/34/9 35/35/9 36/36/9
f 37/37/10 38/38/10 39/39/10 40/40/10
o unknown
v 1 0.25000000000000044 1.1102230246251565e-16
v 1 4.440892098500626e-16 0
v 0 0 1
v 0 0.25 1
v 0 0.25000000000000044 1.1102230246251565e-16
v 0 4.440892098500626e-16 0
v 1 0 1
v 1 0.25 1
vt 0 0.3125
vt 0 0.25
vt 0.25 0.25
vt 0.25 0.3125
vt 0 0.3125
vt 0 0.25
vt 0.25 0.25
vt 0.25 0.3125
vt 0 0.3125
vt 0 0.25
vt 0.25 0.25
vt 0.25 0.3125
vt 0 0.3125
vt 0 0.25
vt 0.25 0.25
vt 0.25 0.3125
vn -0.7071067811865476 3.1401849173675503e-16 -0.7071067811865476
vn 0.7071067811865476 -3.1401849173675503e-16 0.7071067811865476
vn -0.7071067811865476 -3.1401849173675503e-16 0.7071067811865476
vn 0.7071067811865476 3.1401849173675503e-16 -0.7071067811865476
usemtl m_1acad220-fa16-5237-1410-eaec2bc6465a
f 41/41/11 42/42/11 43/43/11 44/44/11
f 44/45/12 43/46/12 42/47/12 41/48/12
f 45/49/13 46/50/13 47/51/13 48/52/13
f 48/53/14 47/54/14 46/55/14 45/56/14