o unknown
v 1.03125 1 -0.03125
v 1.03125 0 -0.03125
v 0.03125 0 0.96875
v 0.03125 1 0.96875
v 0.03125 1 0.03125
v 0.03125 0 0.03125
v 0.96875 0 0.96875
v 0.96875 1 0.96875
vt 0.75 0.25
vt 0.75 0
vt 1 0
vt 1 0.25
vt 1 0.25
vt 1 0
vt 0.75 0
vt 0.75 0.25
vt 0.515625 0.25
vt 0.515625 0
vt 0.75 0
vt 0.75 0.25
vt 0.75 0.25
vt 0.75 0
vt 0.515625 0
vt 0.515625 0.25
vn -0.7071067811865476 0 -0.7071067811865476
vn 0.7071067811865476 0 0.7071067811865476
vn -0.7071067811865476 0 0.7071067811865476
vn 0.7071067811865476 0 -0.7071067811865476
f 1/1/1 2/2/1 3/3/1 4/4/1
f 4/5/2 3/6/2 2/7/2 1/8/2
f 5/9/3 6/10/3 7/11/3 8/12/3
f 8/13/4 7/14/4 6/15/4 5/16/4
o plane
v 0.78125 0.625 0.78125
v 0.78125 0.625 0.21875
v 0.21875 0.625 0.21875
v 0.21875 0.625 0.78125
vt 0.109375 0.140625
vt 0.109375 0
vt 0.25 0
vt 0.25 0.140625
vn 0 1 0
f 9/17/5 10/18/5 11/19/5 12/20/5
o plane
v 0.21875 0.625 0.78125
v 0.21875 0.625 0.21875
v 0.78125 0.625 0.21875
v 0.78125 0.625 0.78125
vt 0.5 0.140625
vt 0.5 0
vt 0.359375 0
vt 0.359375 0.140625
vn 0 -1 0
f 13/21/6 14/22/6 15/23/6 16/24/6
o plane
v 0.5 0.625 0.84375
v 0.5 0.625 0.15625
v 0.2348349570550447 0.8901650429449554 0.15625
v 0.2348349570550447 0.8901650429449554 0.84375
vt 0 0.25
vt 0 0.078125
vt 0.09375 0.078125
vt 0.09375 0.25
vn 0.7071067811865476 0.7071067811865475 0
f 17/25/7 18/26/7 19/27/7 20/28/7
o plane
v 0.7651650429449552 0.8901650429449552 0.15624999999999994
v 0.5 0.625 0.15625
v 0.5 0.625 0.84375
v 0.7651650429449552 0.8901650429449555 0.84375
v 0.7651650429449552 0.8901650429449552 0.15624999999999994
v 0.5 0.625 0.84375
v 0.5 0.625 0.15625
v 0.7651650429449552 0.8901650429449555 0.84375
vt 0 0.07682312499999999
vt 0 0.25
vt 0.09375 0.25
vt 0.09375 0.07682312499999999
vt 0 0.07682312499999999
vt 0 0.25
vt 0.09375 0.25
vt 0.09375 0.07682312499999999
vn -0.7071067811865477 0.7071067811865475 -8.659560562354932e-17
vn 0.7071067811865477 -0.7071067811865475 8.659560562354932e-17
f 22/29/8 23/30/8 24/31/8 25/32/8
f 26/33/9 27/34/9 21/35/9 28/36/9
o plane
v 0.84375 0.625 0.5000000000000001
v 0.15625 0.625 0.4999999999999999
v 0.1562499999999999 0.8901650429449552 0.7651650429449552
v 0.8437499999999999 0.8901650429449554 0.7651650429449554
vt 0 0.25
vt 0 0.078125
vt 0.09375 0.078125
vt 0.09375 0.25
vn 7.850462293418876e-17 0.7071067811865476 -0.7071067811865476
f 29/37/10 30/38/10 31/39/10 32/40/10
o plane
v 0.15625 0.625 0.5000000000000001
v 0.84375 0.625 0.49999999999999994
v 0.8437499999999999 0.8901650429449554 0.23483495705504465
v 0.1562499999999999 0.8901650429449552 0.23483495705504476
vt 0 0.07682312499999999
vt 0 0.25
vt 0.09375 0.25
vt 0.09375 0.07682312499999999
vn 7.850462293418876e-17 0.7071067811865476 0.7071067811865476
f 33/41/11 34/42/11 35/43/11 36/44/11
o plane
v 0.5000000214724777 0.6249999785275224 0.15625
v 0.5000000214724777 0.6249999785275223 0.84375
v 0.23483497852752236 0.8901650214724777 0.84375
v 0.23483497852752236 0.8901650214724778 0.15625
vt 0 0.25
vt 0 0.078125
vt 0.09375 0.078125
vt 0.09375 0.25
vn -0.7071067811865476 -0.7071067811865475 -8.65956056235493e-17
f 37/45/12 38/46/12 39/47/12 40/48/12
o plane
v 0.15625000000000006 0.6249999785275223 0.4999999785275224
v 0.84375 0.6249999785275224 0.4999999785275224
v 0.84375 0.8901650214724778 0.7651650214724777
v 0.15624999999999994 0.8901650214724777 0.7651650214724777
vt 0 0.25
vt 0 0.078125
vt 0.09375 0.078125
vt 0.09375 0.25
vn 7.850462293418875e-17 -0.7071067811865475 0.7071067811865476
f 41/49/13 42/50/13 43/51/13 44/52/13
o plane
v 0.84375 0.6249999785275224 0.5000000214724777
v 0.15625000000000006 0.6249999785275223 0.5000000214724777
v 0.15624999999999994 0.8901650214724777 0.23483497852752236
v 0.84375 0.8901650214724778 0.23483497852752236
vt 0 0.07682312499999999
vt 0 0.25
vt 0.09375 0.25
vt 0.09375 0.07682312499999999
vn 7.850462293418875e-17 -0.7071067811865475 -0.7071067811865476
f 45/53/14 46/54/14 47/55/14 48/56/14