o unknown
v 1.03125 1 -0.03125
v 1.03125 0 -0.03125
v 0.03125 0 0.96875
v 0.03125 1 0.96875
v 0.03125 1 0.03125
v 0.03125 0 0.03125
v 0.96875 0 0.96875
v 0.96875 1 0.96875
vt 0.75 0.25
vt 0.75 0
vt 1 0
vt 1 0.25
vt 1 0.25
vt 1 0
vt 0.75 0
vt 0.75 0.25
vt 0.515625 0.25
vt 0.515625 0
vt 0.75 0
vt 0.75 0.25
vt 0.75 0.25
vt 0.75 0
vt 0.515625 0
vt 0.515625 0.25
vn -0.7071067811865476 0 -0.7071067811865476
vn 0.7071067811865476 0 0.7071067811865476
vn -0.7071067811865476 0 0.7071067811865476
vn 0.7071067811865476 0 -0.7071067811865476
f 1/1/1 2/2/1 3/3/1 4/4/1
f 4/5/2 3/6/2 2/7/2 1/8/2
f 5/9/3 6/10/3 7/11/3 8/12/3
f 8/13/4 7/14/4 6/15/4 5/16/4
o plane
v 0.78125 0.625 0.78125
v 0.78125 0.625 0.21875
v 0.21875 0.625 0.21875
v 0.21875 0.625 0.78125
v 0.21875 0.625 0.78125
v 0.21875 0.625 0.21875
v 0.78125 0.625 0.21875
v 0.78125 0.625 0.78125
vt 0.109375 0.140625
vt 0.109375 0
vt 0.25 0
vt 0.25 0.140625
vt 0.5 0.140625
vt 0.5 0
vt 0.359375 0
vt 0.359375 0.140625
vn 0 1 0
vn 0 -1 0
f 9/17/5 10/18/5 11/19/5 12/20/5
f 13/21/6 14/22/6 15/23/6 16/24/6
o plane
v 0.59375 0.625 0.40625
v 0.59375 0.4375 0.40625
v 0.40625 0.4375 0.40625
v 0.40625 0.625 0.40625
v 0.40625 0.625 0.40625
v 0.40625 0.4375 0.40625
v 0.59375 0.4375 0.40625
v 0.59375 0.625 0.40625
vt 0 0.25
vt 0 0.203125
vt 0.046875 0.203125
vt 0.046875 0.25
vt 0.34375 0.25
vt 0.34375 0.203125
vt 0.296875 0.203125
vt 0.296875 0.25
vn 0 2.220446049250313e-16 -1
vn 0 -2.220446049250313e-16 1
f 17/25/7 18/26/7 19/27/7 20/28/7
f 21/29/8 22/30/8 23/31/8 24/32/8
o plane
v 0.59375 0.625 0.59375
v 0.59375 0.4375 0.59375
v 0.40625 0.4375 0.59375
v 0.40625 0.625 0.59375
v 0.40625 0.625 0.59375
v 0.40625 0.4375 0.59375
v 0.59375 0.4375 0.59375
v 0.59375 0.625 0.59375
vt 0.296875 0.25
vt 0.296875 0.203125
vt 0.34375 0.203125
vt 0.34375 0.25
vt 0 0.25
vt 0 0.203125
vt 0.046875 0.203125
vt 0.046875 0.25
vn 0 2.220446049250313e-16 -1
vn 0 -2.220446049250313e-16 1
f 25/33/9 26/34/9 27/35/9 28/36/9
f 29/37/10 30/38/10 31/39/10 32/40/10
o plane
v 0.40625 0.625 0.40625
v 0.40625 0.4375 0.40625
v 0.40625 0.4375 0.59375
v 0.40625 0.625 0.59375
v 0.40625 0.625 0.59375
v 0.40625 0.4375 0.59375
v 0.40625 0.4375 0.40625
v 0.40625 0.625 0.40625
vt 0 0.25
vt 0 0.203125
vt 0.046875 0.203125
vt 0.046875 0.25
vt 0.34375 0.25
vt 0.34375 0.203125
vt 0.296875 0.203125
vt 0.296875 0.25
vn -1 4.930380657631324e-32 -2.220446049250313e-16
vn 1 -4.930380657631324e-32 2.220446049250313e-16
f 33/41/11 34/42/11 35/43/11 36/44/11
f 37/45/12 38/46/12 39/47/12 40/48/12
o plane
v 0.59375 0.625 0.59375
v 0.59375 0.4375 0.59375
v 0.59375 0.4375 0.40625
v 0.59375 0.625 0.40625
v 0.59375 0.625 0.40625
v 0.59375 0.4375 0.40625
v 0.59375 0.4375 0.59375
v 0.59375 0.625 0.59375
vt 0 0.25
vt 0 0.203125
vt 0.046875 0.203125
vt 0.046875 0.25
vt 0.34375 0.25
vt 0.34375 0.203125
vt 0.296875 0.203125
vt 0.296875 0.25
vn 1 4.930380657631324e-32 -2.220446049250313e-16
vn -1 -4.930380657631324e-32 2.220446049250313e-16
f 41/49/13 42/50/13 43/51/13 44/52/13
f 45/53/14 46/54/14 47/55/14 48/56/14
o plane
v 0.59375 0.4375 0.59375
v 0.40625 0.4375 0.59375
v 0.40625 0.4375 0.40625
v 0.59375 0.4375 0.40625
v 0.59375 0.4375 0.40625
v 0.40625 0.4375 0.40625
v 0.40625 0.4375 0.59375
v 0.59375 0.4375 0.59375
vt 0 0.203125
vt 0 0.15625
vt 0.046875 0.15625
vt 0.046875 0.203125
vt 0.34375 0.203125
vt 0.34375 0.15625
vt 0.296875 0.15625
vt 0.296875 0.203125
vn 2.5407181807812022e-33 -1 1.2246467991473532e-16
vn -2.5407181807812022e-33 1 -1.2246467991473532e-16
f 49/57/15 50/58/15 51/59/15 52/60/15
f 53/61/16 54/62/16 55/63/16 56/64/16