o Snail
v 0.15625 -0.40625 0.59375
v 0.15625 0.09375 0.59375
v 0.15625 -0.40625 0.09375
v 0.15625 0.09375 0.09375
v -0.15625 0.09375 0.59375
v -0.15625 -0.40625 0.59375
v -0.15625 0.09375 0.09375
v -0.15625 -0.40625 0.09375
v 0.125 -0.4375 0.1875
v 0.125 0.0 0.1875
v 0.125 -0.4375 0.0
v 0.125 0.0 0.0
v -0.125 0.0 0.1875
v -0.125 -0.4375 0.1875
v -0.125 0.0 0.0
v -0.125 -0.4375 0.0
v 0.125 0.4375 0.1875
v 0.125 0.4375 0.0
v -0.125 0.4375 0.1875
v -0.125 0.4375 0.0
v 0.125 0.5345571419134454 0.5497221848584004
v -0.125 0.5345571419134454 0.5497221848584004
vt 0.125 0.875
vt 0.203125 0.875
vt 0.203125 0.75
vt 0.125 0.75
vt 0.0 0.875
vt 0.0 0.75
vt 0.328125 0.875
vt 0.40625 0.875
vt 0.40625 0.75
vt 0.328125 0.75
vt 0.125 1.0
vt 0.203125 1.0
vt 0.28125 1.0
vt 0.28125 0.875
vt 0.109375 0.640625
vt 0.171875 0.640625
vt 0.171875 0.59375
vt 0.109375 0.59375
vt 0.0 0.640625
vt 0.0 0.59375
vt 0.28125 0.640625
vt 0.34375 0.640625
vt 0.34375 0.59375
vt 0.28125 0.59375
vt 0.109375 0.75
vt 0.171875 0.75
vt 0.234375 0.75
vt 0.234375 0.640625
vt 0.453125 0.640625
vt 0.515625 0.640625
vt 0.515625 0.59375
vt 0.453125 0.59375
vt 0.625 0.640625
vt 0.6875 0.640625
vt 0.6875 0.59375
vt 0.625 0.59375
vt 0.453125 0.75
vt 0.515625 0.75
vt 0.578125 0.75
vt 0.578125 0.640625
vt 0.0625 0.59375
vt 0.0625 0.5
vt 0.0 0.5
vt 0.125 0.59375
vt 0.125 0.5
vn 0.0 1.0 0.0
vn 1.0 0.0 0.0
vn 0.0 -1.0 0.0
vn -1.0 0.0 0.0
vn 0.0 0.0 1.0
vn 0.0 0.0 -1.0
vn 0.0 0.9659258262890682 -0.25881904510252096
vn 0.0 -0.9659258262890682 0.25881904510252096
vn 0.0 0.25881904510252096 0.9659258262890682
vn 0.0 -0.25881904510252096 -0.9659258262890682
f 4/4/1 7/3/1 5/2/1 2/1/1
f 3/6/2 4/4/2 2/1/2 1/5/2
f 8/10/3 3/9/3 1/8/3 6/7/3
f 7/3/4 8/10/4 6/7/4 5/2/4
f 6/12/5 1/11/5 2/1/5 5/2/5
f 7/14/6 4/2/6 3/12/6 8/13/6
f 12/18/1 15/17/1 13/16/1 10/15/1
f 11/20/2 12/18/2 10/15/2 9/19/2
f 16/24/3 11/23/3 9/22/3 14/21/3
f 15/17/4 16/24/4 14/21/4 13/16/4
f 14/26/5 9/25/5 10/15/5 13/16/5
f 15/28/6 12/16/6 11/26/6 16/27/6
f 18/32/1 20/31/1 19/30/1 17/29/1
f 12/23/2 18/32/2 17/29/2 10/22/2
f 15/36/3 12/35/3 10/34/3 13/33/3
f 20/31/4 15/36/4 13/33/4 19/30/4
f 13/38/5 10/37/5 17/29/5 19/30/5
f 20/40/6 18/30/6 12/38/6 15/39/6
f 17/43/7 19/42/7 22/41/7 21/20/7
f 17/43/2 17/43/2 21/20/2 21/20/2
f 19/42/8 17/45/8 21/44/8 22/41/8
f 19/42/4 19/42/4 22/41/4 22/41/4
f 22/41/9 21/20/9 21/20/9 22/41/9
f 19/44/10 17/41/10 17/41/10 19/44/10