v 0.15625 -0.40625 0.59375
v 0.15625 0.09375 0.59375
v 0.15625 -0.40625 0.09375
v 0.15625 0.09375 0.09375
v -0.15625 0.09375 0.59375
v -0.15625 -0.40625 0.59375
v -0.15625 0.09375 0.09375
v -0.15625 -0.40625 0.09375
vt 0.125 0.875
vt 0.203125 0.875
vt 0.203125 0.75
vt 0.125 0.75
vt 0 0.875
vt 0.125 0.875
vt 0.125 0.75
vt 0 0.75
vt 0.328125 0.875
vt 0.40625 0.875
vt 0.40625 0.75
vt 0.328125 0.75
vt 0.203125 0.875
vt 0.328125 0.875
vt 0.328125 0.75
vt 0.203125 0.75
vt 0.203125 0.875
vt 0.125 0.875
vt 0.125 1
vt 0.203125 1
vt 0.28125 1
vt 0.203125 1
vt 0.203125 0.875
vt 0.28125 0.875
vn 0 1 0
vn 1 0 0
vn 0 -1 0
vn -1 0 0
vn 0 0 1
vn 0 0 -1

f 4/4/1 7/3/1 5/2/1 2/1/1
f 3/8/2 4/7/2 2/6/2 1/5/2
f 8/12/3 3/11/3 1/10/3 6/9/3
f 7/16/4 8/15/4 6/14/4 5/13/4
f 6/20/5 1/19/5 2/18/5 5/17/5
f 7/24/6 4/23/6 3/22/6 8/21/6

v 0.125 -0.4375 0.1875
v 0.125 0 0.1875
v 0.125 -0.4375 0
v 0.125 0 0
v -0.125 0 0.1875
v -0.125 -0.4375 0.1875
v -0.125 0 0
v -0.125 -0.4375 0
vt 0.109375 0.640625
vt 0.171875 0.640625
vt 0.171875 0.59375
vt 0.109375 0.59375
vt 0 0.640625
vt 0.109375 0.640625
vt 0.109375 0.59375
vt 0 0.59375
vt 0.28125 0.640625
vt 0.34375 0.640625
vt 0.34375 0.59375
vt 0.28125 0.59375
vt 0.171875 0.640625
vt 0.28125 0.640625
vt 0.28125 0.59375
vt 0.171875 0.59375
vt 0.171875 0.640625
vt 0.109375 0.640625
vt 0.109375 0.75
vt 0.171875 0.75
vt 0.234375 0.75
vt 0.171875 0.75
vt 0.171875 0.640625
vt 0.234375 0.640625
vn 0 1 0
vn 1 0 0
vn 0 -1 0
vn -1 0 0
vn 0 0 1
vn 0 0 -1

f 12/28/7 15/27/7 13/26/7 10/25/7
f 11/32/8 12/31/8 10/30/8 9/29/8
f 16/36/9 11/35/9 9/34/9 14/33/9
f 15/40/10 16/39/10 14/38/10 13/37/10
f 14/44/11 9/43/11 10/42/11 13/41/11
f 15/48/12 12/47/12 11/46/12 16/45/12

v 0.125 0 0.1875
v 0.125 0.4375 0.1875
v 0.125 0 0
v 0.125 0.4375 0
v -0.125 0.4375 0.1875
v -0.125 0 0.1875
v -0.125 0.4375 0
v -0.125 0 0
vt 0.453125 0.640625
vt 0.515625 0.640625
vt 0.515625 0.59375
vt 0.453125 0.59375
vt 0.34375 0.640625
vt 0.453125 0.640625
vt 0.453125 0.59375
vt 0.34375 0.59375
vt 0.625 0.640625
vt 0.6875 0.640625
vt 0.6875 0.59375
vt 0.625 0.59375
vt 0.515625 0.640625
vt 0.625 0.640625
vt 0.625 0.59375
vt 0.515625 0.59375
vt 0.515625 0.640625
vt 0.453125 0.640625
vt 0.453125 0.75
vt 0.515625 0.75
vt 0.578125 0.75
vt 0.515625 0.75
vt 0.515625 0.640625
vt 0.578125 0.640625
vn 0 1 0
vn 1 0 0
vn 0 -1 0
vn -1 0 0
vn 0 0 1
vn 0 0 -1

f 20/52/13 23/51/13 21/50/13 18/49/13
f 19/56/14 20/55/14 18/54/14 17/53/14
f 24/60/15 19/59/15 17/58/15 22/57/15
f 23/64/16 24/63/16 22/62/16 21/61/16
f 22/68/17 17/67/17 18/66/17 21/65/17
f 23/72/18 20/71/18 19/70/18 24/69/18

v 0.125 0.5345571419134454 0.5497221848584004
v 0.125 0.5345571419134454 0.5497221848584004
v 0.125 0.4375 0.1875
v 0.125 0.4375 0.1875
v -0.125 0.5345571419134454 0.5497221848584004
v -0.125 0.5345571419134454 0.5497221848584004
v -0.125 0.4375 0.1875
v -0.125 0.4375 0.1875
vt 0 0.59375
vt 0.0625 0.59375
vt 0.0625 0.5
vt 0 0.5
vt 0 0.59375
vt 0 0.59375
vt 0 0.5
vt 0 0.5
vt 0.0625 0.59375
vt 0.125 0.59375
vt 0.125 0.5
vt 0.0625 0.5
vt 0.0625 0.59375
vt 0.0625 0.59375
vt 0.0625 0.5
vt 0.0625 0.5
vt 0.0625 0.59375
vt 0 0.59375
vt 0 0.59375
vt 0.0625 0.59375
vt 0.125 0.59375
vt 0.0625 0.59375
vt 0.0625 0.59375
vt 0.125 0.59375
vn 0 0.9659258262890682 -0.25881904510252096
vn 1 0 0
vn 0 -0.9659258262890682 0.25881904510252096
vn -1 0 0
vn 0 0.25881904510252096 0.9659258262890682
vn 0 -0.25881904510252096 -0.9659258262890682

f 28/76/19 31/75/19 29/74/19 26/73/19
f 27/80/20 28/79/20 26/78/20 25/77/20
f 32/84/21 27/83/21 25/82/21 30/81/21
f 31/88/22 32/87/22 30/86/22 29/85/22
f 30/92/23 25/91/23 26/90/23 29/89/23
f 31/96/24 28/95/24 27/94/24 32/93/24
