{
  "asset": { "version": "2.0", "generator": "Blockbench 5.0.3 glTF exporter" },
  "scenes": [{ "nodes": [1], "name": "blockbench_export" }],
  "scene": 0,
  "nodes": [
    {
      "rotation": [-0.8870108331782217, 0, 0, 0.46174861323503386],
      "name": "RightArm"
    },
    {
      "rotation": [-0.8870108331782217, 0, 0, 0.46174861323503386],
      "name": "RightArm",
      "mesh": 0,
      "children": [0],
      "skin": 0
    }
  ],
  "bufferViews": [
    {
      "buffer": 0,
      "byteOffset": 0,
      "byteLength": 576,
      "target": 34962,
      "byteStride": 12
    },
    {
      "buffer": 0,
      "byteOffset": 576,
      "byteLength": 576,
      "target": 34962,
      "byteStride": 12
    },
    {
      "buffer": 0,
      "byteOffset": 1152,
      "byteLength": 384,
      "target": 34962,
      "byteStride": 8
    },
    {
      "buffer": 0,
      "byteOffset": 1536,
      "byteLength": 384,
      "target": 34962,
      "byteStride": 8
    },
    {
      "buffer": 0,
      "byteOffset": 1920,
      "byteLength": 768,
      "target": 34962,
      "byteStride": 16
    },
    { "buffer": 0, "byteOffset": 2688, "byteLength": 144, "target": 34963 },
    { "buffer": 0, "byteOffset": 2832, "byteLength": 64 },
    { "buffer": 0, "byteOffset": 2896, "byteLength": 604 },
    { "buffer": 0, "byteOffset": 3500, "byteLength": 1812 },
    { "buffer": 0, "byteOffset": 5312, "byteLength": 184 },
    { "buffer": 0, "byteOffset": 5496, "byteLength": 736 },
    { "buffer": 0, "byteOffset": 6232, "byteLength": 308 },
    { "buffer": 0, "byteOffset": 6540, "byteLength": 924 },
    { "buffer": 0, "byteOffset": 7464, "byteLength": 176 },
    { "buffer": 0, "byteOffset": 7640, "byteLength": 704 },
    { "buffer": 0, "byteOffset": 8344, "byteLength": 176 },
    { "buffer": 0, "byteOffset": 8520, "byteLength": 528 }
  ],
  "buffers": [
    {
      "byteLength": 9048,
      "uri": "data:application/octet-stream;base64,"
    }
  ],
  "accessors": [
    {
      "bufferView": 0,
      "componentType": 5126,
      "count": 48,
      "max": [0.09375, 0.6881250143051147, 0.09375],
      "min": [-0.09375, -0.0625, -0.09375],
      "type": "VEC3"
    },
    {
      "bufferView": 1,
      "componentType": 5126,
      "count": 48,
      "max": [1, 1, 1],
      "min": [-1, -1, -1],
      "type": "VEC3"
    },
    {
      "bufferView": 2,
      "componentType": 5126,
      "count": 48,
      "max": [0.812255859375, 0.421630859375],
      "min": [0.500244140625, 0.187744140625],
      "type": "VEC2"
    },
    {
      "bufferView": 3,
      "componentType": 5123,
      "count": 48,
      "max": [0, 0, 0, 0],
      "min": [0, 0, 0, 0],
      "type": "VEC4"
    },
    {
      "bufferView": 4,
      "componentType": 5126,
      "count": 48,
      "max": [0, 1, 0, 0],
      "min": [0, 1, 0, 0],
      "type": "VEC4"
    },
    {
      "bufferView": 5,
      "componentType": 5123,
      "count": 72,
      "max": [47],
      "min": [0],
      "type": "SCALAR"
    },
    {
      "bufferView": 6,
      "componentType": 5126,
      "count": 1,
      "max": [
        1, 0, 0, 0, 0, -0.5735764503479004, 0.8191520571708679, 0, 0,
        -0.8191520571708679, -0.5735764503479004, 0, 0, 0, 0, 1
      ],
      "min": [
        1, 0, 0, 0, 0, -0.5735764503479004, 0.8191520571708679, 0, 0,
        -0.8191520571708679, -0.5735764503479004, 0, 0, 0, 0, 1
      ],
      "type": "MAT4"
    },
    {
      "bufferView": 7,
      "componentType": 5126,
      "count": 151,
      "max": [4.483333110809326],
      "min": [0],
      "type": "SCALAR"
    },
    {
      "bufferView": 8,
      "componentType": 5126,
      "count": 151,
      "max": [0, 0.031247884035110474, 0],
      "min": [0, -0.031247884035110474, 0],
      "type": "VEC3"
    },
    {
      "bufferView": 9,
      "componentType": 5126,
      "count": 46,
      "max": [1],
      "min": [0],
      "type": "SCALAR"
    },
    {
      "bufferView": 10,
      "componentType": 5126,
      "count": 46,
      "max": [
        -0.8822449445724487, 0.08881339430809021, 0.009492508135735989,
        0.4617486000061035
      ],
      "min": [
        -0.9999009966850281, -0.08013002574443817, -0.04630832374095917,
        -0.18167375028133392
      ],
      "type": "VEC4"
    },
    {
      "bufferView": 11,
      "componentType": 5126,
      "count": 77,
      "max": [2],
      "min": [0],
      "type": "SCALAR"
    },
    {
      "bufferView": 12,
      "componentType": 5126,
      "count": 77,
      "max": [0.3531250059604645, 0.25038382411003113, 0.6402409672737122],
      "min": [-1.1806249618530273, 0, -0.125],
      "type": "VEC3"
    },
    {
      "bufferView": 13,
      "componentType": 5126,
      "count": 44,
      "max": [1],
      "min": [0],
      "type": "SCALAR"
    },
    {
      "bufferView": 14,
      "componentType": 5126,
      "count": 44,
      "max": [-0.5114559531211853, 0, 0.5100239515304565, 0.5651575326919556],
      "min": [-0.9235566258430481, -0.406277596950531, 0, 0.10949969291687012],
      "type": "VEC4"
    },
    {
      "bufferView": 15,
      "componentType": 5126,
      "count": 44,
      "max": [1],
      "min": [0],
      "type": "SCALAR"
    },
    {
      "bufferView": 16,
      "componentType": 5126,
      "count": 44,
      "max": [0.0625, 0.1875, 0.5],
      "min": [-0.25, 0, -0.27132102847099304],
      "type": "VEC3"
    }
  ],
  "materials": [
    {
      "pbrMetallicRoughness": {
        "metallicFactor": 0,
        "roughnessFactor": 1,
        "baseColorTexture": { "index": 0 }
      },
      "alphaMode": "MASK",
      "alphaCutoff": 0.05,
      "doubleSided": true
    }
  ],
  "textures": [{ "sampler": 0, "source": 0, "name": "snale.png" }],
  "samplers": [
    { "magFilter": 9728, "minFilter": 9728, "wrapS": 33071, "wrapT": 33071 }
  ],
  "images": [
    { "mimeType": "image/png", "name": "snale.png", "uri": "snale.png" }
  ],
  "meshes": [
    {
      "primitives": [
        {
          "mode": 4,
          "attributes": {
            "POSITION": 0,
            "NORMAL": 1,
            "TEXCOORD_0": 2,
            "JOINTS_0": 3,
            "WEIGHTS_0": 4
          },
          "indices": 5,
          "material": 0
        }
      ]
    }
  ],
  "skins": [{ "inverseBindMatrices": 6, "joints": [0], "skeleton": 0 }],
  "animations": [
    {
      "name": "idle",
      "samplers": [{ "input": 7, "output": 8, "interpolation": "LINEAR" }],
      "channels": [
        { "sampler": 0, "target": { "node": 0, "path": "translation" } }
      ]
    },
    {
      "name": "swing",
      "samplers": [
        { "input": 9, "output": 10, "interpolation": "LINEAR" },
        { "input": 11, "output": 12, "interpolation": "LINEAR" }
      ],
      "channels": [
        { "sampler": 0, "target": { "node": 0, "path": "rotation" } },
        { "sampler": 1, "target": { "node": 0, "path": "translation" } }
      ]
    },
    {
      "name": "swing_axe",
      "samplers": [
        { "input": 13, "output": 14, "interpolation": "LINEAR" },
        { "input": 15, "output": 16, "interpolation": "LINEAR" }
      ],
      "channels": [
        { "sampler": 0, "target": { "node": 0, "path": "rotation" } },
        { "sampler": 1, "target": { "node": 0, "path": "translation" } }
      ]
    }
  ]
}
