{
  "asset": { "version": "2.0", "generator": "Blockbench 5.0.2 glTF exporter" },
  "scenes": [{ "nodes": [1], "name": "blockbench_export" }],
  "scene": 0,
  "nodes": [
    {
      "rotation": [-0.7071067811865475, 0, 0, 0.7071067811865476],
      "name": "RightArm"
    },
    {
      "rotation": [-0.7071067811865475, 0, 0, 0.7071067811865476],
      "name": "RightArm",
      "mesh": 0,
      "children": [0],
      "skin": 0
    }
  ],
  "bufferViews": [
    {
      "buffer": 0,
      "byteOffset": 0,
      "byteLength": 576,
      "target": 34962,
      "byteStride": 12
    },
    {
      "buffer": 0,
      "byteOffset": 576,
      "byteLength": 576,
      "target": 34962,
      "byteStride": 12
    },
    {
      "buffer": 0,
      "byteOffset": 1152,
      "byteLength": 384,
      "target": 34962,
      "byteStride": 8
    },
    {
      "buffer": 0,
      "byteOffset": 1536,
      "byteLength": 384,
      "target": 34962,
      "byteStride": 8
    },
    {
      "buffer": 0,
      "byteOffset": 1920,
      "byteLength": 768,
      "target": 34962,
      "byteStride": 16
    },
    { "buffer": 0, "byteOffset": 2688, "byteLength": 144, "target": 34963 },
    { "buffer": 0, "byteOffset": 2832, "byteLength": 64 },
    { "buffer": 0, "byteOffset": 2896, "byteLength": 184 },
    { "buffer": 0, "byteOffset": 3080, "byteLength": 736 },
    { "buffer": 0, "byteOffset": 3816, "byteLength": 308 },
    { "buffer": 0, "byteOffset": 4124, "byteLength": 924 }
  ],
  "buffers": [
    {
      "byteLength": 5048,
      "uri": "data:application/octet-stream;base64,"
    }
  ],
  "accessors": [
    {
      "bufferView": 0,
      "componentType": 5126,
      "count": 48,
      "max": [0.09375, 0.6881250143051147, 0.09375],
      "min": [-0.09375, -0.0625, -0.09375],
      "type": "VEC3"
    },
    {
      "bufferView": 1,
      "componentType": 5126,
      "count": 48,
      "max": [1, 1, 1],
      "min": [-1, -1, -1],
      "type": "VEC3"
    },
    {
      "bufferView": 2,
      "componentType": 5126,
      "count": 48,
      "max": [0.812255859375, 0.421630859375],
      "min": [0.500244140625, 0.187744140625],
      "type": "VEC2"
    },
    {
      "bufferView": 3,
      "componentType": 5123,
      "count": 48,
      "max": [0, 0, 0, 0],
      "min": [0, 0, 0, 0],
      "type": "VEC4"
    },
    {
      "bufferView": 4,
      "componentType": 5126,
      "count": 48,
      "max": [0, 1, 0, 0],
      "min": [0, 1, 0, 0],
      "type": "VEC4"
    },
    {
      "bufferView": 5,
      "componentType": 5123,
      "count": 72,
      "max": [47],
      "min": [0],
      "type": "SCALAR"
    },
    {
      "bufferView": 6,
      "componentType": 5126,
      "count": 1,
      "max": [
        1, 0, 0, 0, 0, 2.220446049250313e-16, 1, 0, 0, -1,
        2.220446049250313e-16, 0, 0, 0, 0, 1
      ],
      "min": [
        1, 0, 0, 0, 0, 2.220446049250313e-16, 1, 0, 0, -1,
        2.220446049250313e-16, 0, 0, 0, 0, 1
      ],
      "type": "MAT4"
    },
    {
      "bufferView": 7,
      "componentType": 5126,
      "count": 46,
      "max": [1],
      "min": [0],
      "type": "SCALAR"
    },
    {
      "bufferView": 8,
      "componentType": 5126,
      "count": 46,
      "max": [
        -0.7030834555625916, 0.07077766209840775, 0.011102532036602497,
        0.7040179967880249
      ],
      "min": [
        -0.9897765517234802, -0.08065800368785858, -0.0708717405796051,
        0.12149365991353989
      ],
      "type": "VEC4"
    },
    {
      "bufferView": 9,
      "componentType": 5126,
      "count": 77,
      "max": [2],
      "min": [0],
      "type": "SCALAR"
    },
    {
      "bufferView": 10,
      "componentType": 5126,
      "count": 77,
      "max": [0.3531250059604645, 0.2503836750984192, 0.640240490436554],
      "min": [-1.1806249618530273, 0, -0.125],
      "type": "VEC3"
    }
  ],
  "materials": [
    {
      "pbrMetallicRoughness": {
        "metallicFactor": 0,
        "roughnessFactor": 1,
        "baseColorTexture": { "index": 0 }
      },
      "alphaMode": "MASK",
      "alphaCutoff": 0.05,
      "doubleSided": true
    }
  ],
  "textures": [{ "sampler": 0, "source": 0, "name": "snale.png" }],
  "samplers": [
    { "magFilter": 9728, "minFilter": 9728, "wrapS": 33071, "wrapT": 33071 }
  ],
  "images": [
    { "mimeType": "image/png", "name": "snale.png", "uri": "snale.png" }
  ],
  "meshes": [
    {
      "primitives": [
        {
          "mode": 4,
          "attributes": {
            "POSITION": 0,
            "NORMAL": 1,
            "TEXCOORD_0": 2,
            "JOINTS_0": 3,
            "WEIGHTS_0": 4
          },
          "indices": 5,
          "material": 0
        }
      ]
    }
  ],
  "skins": [{ "inverseBindMatrices": 6, "joints": [0], "skeleton": 0 }],
  "animations": [
    {
      "name": "ZALUPA",
      "samplers": [
        { "input": 7, "output": 8, "interpolation": "LINEAR" },
        { "input": 9, "output": 10, "interpolation": "LINEAR" }
      ],
      "channels": [
        { "sampler": 0, "target": { "node": 0, "path": "rotation" } },
        { "sampler": 1, "target": { "node": 0, "path": "translation" } }
      ]
    }
  ]
}
