o unknown
v -1.1102230246251565e-16 0.43750000000000033 0.875
v 0.6874999999999999 0.43749999999999944 0.875
v 0.6875000000000001 0.5624999999999994 0.875
v 8.326672684688674e-17 0.5625000000000003 0.875
v 8.326672684688674e-17 0.5625000000000003 0.75
v 0.6875000000000001 0.5624999999999994 0.75
v 0.6874999999999999 0.43749999999999944 0.75
v -1.1102230246251565e-16 0.43750000000000033 0.75
vt 0.75 0.25
vt 0.578125 0.25
vt 0.578125 0.21875
vt 0.75 0.21875
vt 0.75 0.25
vt 0.578125 0.25
vt 0.578125 0.21875
vt 0.75 0.21875
vt 0.75 0.25
vt 0.75 0.21875
vt 0.578125 0.21875
vt 0.578125 0.25
vt 0.828125 0.25
vt 0.828125 0.21875
vt 1 0.21875
vt 1 0.25
vt 0.09375 0.5
vt 0.09375 0.46875
vt 0.125 0.46875
vt 0.125 0.5
vt 0.125 0.5
vt 0.09375 0.5
vt 0.09375 0.46875
vt 0.125 0.46875
vn 0 0 1
vn 0 0 -1
vn -1.3322676295501878e-15 -1 0
vn 1.3322676295501878e-15 1 0
vn 1 -1.3322676295501878e-15 0
vn -1 1.3322676295501878e-15 0
f 1/1/1 2/2/1 3/3/1 4/4/1
f 5/5/2 6/6/2 7/7/2 8/8/2
f 1/9/3 8/10/3 7/11/3 2/12/3
f 3/13/4 6/14/4 5/15/4 4/16/4
f 2/17/5 7/18/5 6/19/5 3/20/5
f 1/21/6 4/22/6 5/23/6 8/24/6
o plane
v 0.4999999967738039 0.6250000000000027 0.6249999999999977
v 0.49999999677380386 0.6250000000000062 0.8124999999999977
v 0.500000003226196 0.3750000000000063 0.8125000000000024
v 0.500000003226196 0.37500000000000266 0.6250000000000024
vt 0.53125 0.15625
vt 0.53125 0.203125
vt 0.59375 0.203125
vt 0.59375 0.15625
vn 0.9999999999999998 2.5809568260370955e-8 1.1102181247266996e-16
f 9/25/7 10/26/7 11/27/7 12/28/7
o plane
v 0.500000003226196 0.37500000000000266 0.6250000000000024
v 0.500000003226196 0.3750000000000063 0.8125000000000024
v 0.49999999677380386 0.6250000000000062 0.8124999999999977
v 0.4999999967738039 0.6250000000000027 0.6249999999999977
vt 0.59375 0.15625
vt 0.59375 0.203125
vt 0.53125 0.203125
vt 0.53125 0.15625
vn -0.9999999999999998 -2.5809568260370955e-8 -1.1102181247266996e-16
f 13/29/8 14/30/8 15/31/8 16/32/8
o unknown
v 0.24999999999999967 0.25000000000000033 0.5
v 0.7499999999999997 0.24999999999999967 0.5
v 0.7500000000000003 0.7499999999999997 0.5
v 0.25000000000000033 0.7500000000000003 0.5
v 0.25000000000000033 0.7500000000000003 0.4375
v 0.7500000000000003 0.7499999999999997 0.4375
v 0.7499999999999997 0.24999999999999967 0.4375
v 0.24999999999999967 0.25000000000000033 0.4375
vt 0.125 0.25
vt 0.125 0.125
vt 0.25 0.125
vt 0.25 0.25
vt 0.375 0.125
vt 0.375 0
vt 0.5 0
vt 0.5 0.125
vt 0.5 0.125
vt 0.5 0.109375
vt 0.625 0.109375
vt 0.625 0.125
vt 0.75 0.125
vt 0.75 0.109375
vt 0.875 0.109375
vt 0.875 0.125
vt 0 0.375
vt 0 0.359375
vt 0.125 0.359375
vt 0.125 0.375
vt 0.25 0.375
vt 0.25 0.359375
vt 0.375 0.359375
vt 0.375 0.375
vn 0 0 1
vn 0 0 -1
vn -1.3322676295501878e-15 -1 0
vn 1.3322676295501878e-15 1 0
vn 1 -1.3322676295501878e-15 0
vn -1 1.3322676295501878e-15 0
f 17/33/9 18/34/9 19/35/9 20/36/9
f 21/37/10 22/38/10 23/39/10 24/40/10
f 17/41/11 24/42/11 23/43/11 18/44/11
f 19/45/12 22/46/12 21/47/12 20/48/12
f 18/49/13 23/50/13 22/51/13 19/52/13
f 20/53/14 21/54/14 24/55/14 17/56/14
o unknown
v 0.37499999999999983 0.37500000000000017 0.625
v 0.6249999999999998 0.37499999999999983 0.625
v 0.6250000000000002 0.6249999999999998 0.625
v 0.37500000000000017 0.6250000000000002 0.625
v 0.37500000000000017 0.6250000000000002 0.5
v 0.6250000000000002 0.6249999999999998 0.5
v 0.6249999999999998 0.37499999999999983 0.5
v 0.37499999999999983 0.37500000000000017 0.5
vt 0.03125 0.21875
vt 0.03125 0.15625
vt 0.09375 0.15625
vt 0.09375 0.21875
vt 0.53125 0.15625
vt 0.53125 0.125
vt 0.59375 0.125
vt 0.59375 0.15625
vt 0.78125 0.15625
vt 0.78125 0.125
vt 0.84375 0.125
vt 0.84375 0.15625
vt 0.03125 0.40625
vt 0.03125 0.375
vt 0.09375 0.375
vt 0.09375 0.40625
vt 0.28125 0.40625
vt 0.28125 0.375
vt 0.34375 0.375
vt 0.34375 0.40625
vn 0 0 1
vn -1.3322676295501878e-15 -1 0
vn 1.3322676295501878e-15 1 0
vn 1 -1.3322676295501878e-15 0
vn -1 1.3322676295501878e-15 0
f 25/57/15 26/58/15 27/59/15 28/60/15
f 25/61/16 32/62/16 31/63/16 26/64/16
f 27/65/17 30/66/17 29/67/17 28/68/17
f 26/69/18 31/70/18 30/71/18 27/72/18
f 28/73/19 29/74/19 32/75/19 25/76/19
o unknown
v 0.3124999999999998 0.3125000000000002 0.4375
v 0.6874999999999998 0.3124999999999998 0.4375
v 0.6875000000000002 0.6874999999999998 0.4375
v 0.3125000000000002 0.6875000000000002 0.4375
v 0.3125000000000002 0.6875000000000002 0
v 0.6875000000000002 0.6874999999999998 0
v 0.6874999999999998 0.3124999999999998 0
v 0.3124999999999998 0.3125000000000002 0
vt 0.265625 0.109375
vt 0.265625 0.015625
vt 0.359375 0.015625
vt 0.359375 0.109375
vt 0.640625 0.109375
vt 0.640625 0
vt 0.734375 0
vt 0.734375 0.109375
vt 0.890625 0.109375
vt 0.890625 0
vt 0.984375 0
vt 0.984375 0.109375
vt 0.015625 0.359375
vt 0.015625 0.25
vt 0.109375 0.25
vt 0.109375 0.359375
vt 0.265625 0.359375
vt 0.265625 0.25
vt 0.359375 0.25
vt 0.359375 0.359375
vn 0 0 -1
vn -1.3322676295501878e-15 -1 0
vn 1.3322676295501878e-15 1 0
vn 1 -1.3322676295501878e-15 0
vn -1 1.3322676295501878e-15 0
f 37/77/20 38/78/20 39/79/20 40/80/20
f 33/81/21 40/82/21 39/83/21 34/84/21
f 35/85/22 38/86/22 37/87/22 36/88/22
f 34/89/23 39/90/23 38/91/23 35/92/23
f 36/93/24 37/94/24 40/95/24 33/96/24